SplineFontDB: 3.0
FontName: A_Rivaj_Heading
FullName: A_Rivaj_Heading
FamilyName: A_Rivaj_Heading
Weight: Regular
Copyright: Copyright (c) 2017, inemanicka
UComments: "2017-11-12: Created with FontForge (http://fontforge.org)"
Version: 001.000
ItalicAngle: 0
UnderlinePosition: -102
UnderlineWidth: 50
Ascent: 820
Descent: 204
InvalidEm: 0
LayerCount: 2
Layer: 0 0 "Back" 1
Layer: 1 0 "Fore" 0
XUID: [1021 260 -1120133661 23103]
StyleMap: 0x0000
FSType: 0
OS2Version: 0
OS2_WeightWidthSlopeOnly: 0
OS2_UseTypoMetrics: 1
CreationTime: 1510465065
ModificationTime: 1512427895
PfmFamily: 49
TTFWeight: 500
TTFWidth: 5
LineGap: 92
VLineGap: 92
OS2TypoAscent: 0
OS2TypoAOffset: 1
OS2TypoDescent: 0
OS2TypoDOffset: 1
OS2TypoLinegap: 92
OS2WinAscent: 0
OS2WinAOffset: 1
OS2WinDescent: 0
OS2WinDOffset: 1
HheadAscent: 0
HheadAOffset: 1
HheadDescent: 0
HheadDOffset: 1
OS2XHeight: 100
OS2Vendor: 'PfEd'
Lookup: 258 0 0 "Elango_one_kern" { "Elango_one_kern-1" [153,15,0] } []
MarkAttachClasses: 1
DEI: 91125
LangName: 1033
Encoding: iso8859-5
Compacted: 1
UnicodeInterp: none
NameList: AGL For New Fonts
DisplaySize: -48
AntiAlias: 1
FitToEm: 0
WidthSeparation: 77
WinInfo: 15 15 4
BeginPrivate: 0
EndPrivate
Grid
107.997070312 -1625.85449219 m 0
 343.4921875 -1625.85449219 l 1024
  Named: "lelow curve start"
110.374023438 -1909.69726562 m 4
 345.868164062 -1909.69726562 l 1028
  Named: "lerge letter ends"
107.997070312 1338.83300781 m 0
 343.4921875 1338.83300781 l 1024
  Named: "483 - small letter h start"
107.997070312 1672.59863281 m 0
 343.4921875 1672.59863281 l 1024
  Named: "547 - small letter height"
107.997070312 -4131.63671875 m 0
 343.4921875 -4131.63671875 l 1024
203.666992188 5766.32226562 m 0
 203.666992188 -4913.87695312 l 1024
208.572265625 5766.32226562 m 0
 208.572265625 -4913.87695312 l 1024
107.997070312 2762.52636719 m 0
 343.4921875 2762.52636719 l 1024
107.997070312 -846.2265625 m 0
 343.4921875 -846.2265625 l 1024
107.997070312 791.267578125 m 0

StartChar: A
Encoding: 65 65 0
Width: 312
VWidth: -76
Flags: HW
LayerCount: 2
Fore
SplineSet
107.950195312 288 m 1
 200.649414062 288 l 1
 154.299804688 665.92578125 l 1
 107.950195312 288 l 1
97.833984375 233 m 1
 84.2998046875 94.755859375 l 1
 84.2998046875 -72 l 1
 84.2998046875 -77 l 1
 79.2998046875 -77 l 1
 54.2998046875 -77 l 1
 49.2998046875 -77 l 1
 49.2998046875 -72 l 1
 49.2998046875 107.112304688 l 1
 49.2998046875 107.413085938 l 1
 49.3369140625 107.711914062 l 1
 144.336914062 876.606445312 l 1
 144.874023438 881 l 1
 149.299804688 881 l 1
 159.299804688 881 l 1
 163.725585938 881 l 1
 164.262695312 876.606445312 l 1
 259.262695312 107.711914062 l 1
 259.299804688 107.413085938 l 1
 259.299804688 107.112304688 l 1
 259.299804688 -72 l 1
 259.299804688 -77 l 1
 254.299804688 -77 l 1
 229.299804688 -77 l 1
 224.299804688 -77 l 1
 224.299804688 -72 l 1
 224.299804688 94.755859375 l 1
 210.765625 233 l 1
 97.833984375 233 l 1
EndSplineSet
EndChar

StartChar: B
Encoding: 66 66 1
Width: 330
VWidth: -76
Flags: HW
LayerCount: 2
Fore
SplineSet
99.599609375 482 m 1
 174.927734375 482 l 1
 192.443359375 496.516601562 210.008789062 552.270507812 219.725585938 595.310546875 c 0
 223.618164062 611.594726562 233.504882812 669.126953125 222.668945312 730.219726562 c 0
 222.177734375 733.215820312 221.439453125 736.270507812 220.452148438 739.500976562 c 0
 211.223632812 769.706054688 185.0546875 797.731445312 180.0703125 796.220703125 c 2
 179.3515625 796 l 1
 178.599609375 796 l 1
 99.599609375 796 l 1
 99.599609375 482 l 1
64.599609375 882.046875 m 1
 69.6455078125 882 l 1
 177.645507812 881 l 1
 177.80078125 880.998046875 l 1
 177.956054688 880.987304688 l 2
 196.885742188 879.649414062 257.555664062 820.83984375 261.595703125 718.88671875 c 0
 263.604492188 667.19921875 261.598632812 627.301757812 256.55078125 591.330078125 c 0
 247.736328125 529.39453125 227.4453125 470.805664062 222.442382812 456.881835938 c 1
 234.58203125 443.569335938 267.928710938 384.921875 272.592773438 295.389648438 c 0
 276.619140625 221.668945312 272.63671875 106.158203125 268.563476562 69.8740234375 c 0
 261.6796875 18.2919921875 245.7578125 -64.666015625 202.872070312 -75.8349609375 c 2
 202.264648438 -75.9951171875 l 1
 201.637695312 -76 l 1
 69.6376953125 -77 l 1
 64.599609375 -77.0380859375 l 1
 64.599609375 -72 l 1
 64.599609375 877 l 1
 64.599609375 882.046875 l 1
99.599609375 9 m 1
 192.176757812 9 l 1
 223.560546875 29.4140625 231.611328125 91.353515625 233.62109375 108.190429688 c 0
 235.669921875 135.958007812 240.501953125 247.235351562 232.647460938 301.51171875 c 0
 231.96875 306.453125 231.096679688 311.202148438 230.043945312 315.85546875 c 0
 218.508789062 366.861328125 187.360351562 395.412109375 181.723632812 394.127929688 c 2
 181.168945312 394 l 1
 180.599609375 394 l 1
 99.599609375 394 l 1
 99.599609375 9 l 1
EndSplineSet
EndChar

StartChar: i
Encoding: 105 105 2
Width: 182
VWidth: -69
Flags: HW
LayerCount: 2
Fore
SplineSet
69.099609375 653 m 1
 69.099609375 658 l 1
 69.099609375 781 l 1
 69.099609375 786 l 1
 74.099609375 786 l 1
 121.099609375 786 l 1
 126.099609375 786 l 1
 126.099609375 781 l 1
 126.099609375 658 l 1
 126.099609375 653 l 1
 121.099609375 653 l 1
 74.099609375 653 l 1
 69.099609375 653 l 1
82.099609375 -38 m 5
 82.099609375 -33 l 5
 82.099609375 521 l 1
 34.099609375 521 l 1
 29.099609375 521 l 1
 29.099609375 526 l 1
 29.099609375 588 l 1
 29.099609375 593 l 1
 34.099609375 593 l 1
 124.099609375 593 l 1
 129.099609375 593 l 1
 129.099609375 588 l 1
 129.099609375 -33 l 5
 129.099609375 -38 l 5
 124.099609375 -38 l 5
 87.099609375 -38 l 5
 82.099609375 -38 l 5
EndSplineSet
EndChar

StartChar: C
Encoding: 67 67 3
Width: 326
VWidth: -76
Flags: HW
LayerCount: 2
Fore
SplineSet
150.168945312 -14.013671875 m 6
 150.168945312 -14.013671875 184.233398438 -14 187.799804688 -14 c 4
 202.122070312 -14 232.799804688 31.857421875 232.799804688 109 c 2
 232.799804688 228 l 1
 232.799804688 233 l 1
 237.799804688 233 l 1
 261.799804688 233 l 1
 266.799804688 233 l 1
 266.799804688 228 l 1
 266.799804688 114 l 2
 266.799804688 -19.44140625 233.23046875 -77 187.799804688 -77 c 2
 149.799804688 -77 l 2
 81.9345703125 -77 48.7998046875 52.814453125 48.7998046875 224.849609375 c 2
 48.7998046875 579.150390625 l 2
 48.7998046875 768.419921875 96.04296875 881 149.799804688 881 c 2
 187.799804688 881 l 2
 233.133789062 881 266.799804688 826.475585938 266.799804688 690 c 2
 266.799804688 579 l 1
 266.799804688 574 l 1
 261.799804688 574 l 1
 237.799804688 574 l 1
 232.799804688 574 l 1
 232.799804688 579 l 1
 232.799804688 695 l 2
 232.799804688 775.20703125 202.274414062 816.717773438 188.049804688 816.005859375 c 2
 187.924804688 816 l 1
 187.799804688 816 l 1
 150.016601562 816 l 2
 111.340820312 812.677734375 92.7998046875 681.791992188 92.7998046875 578.8046875 c 2
 92.7998046875 225.170898438 l 2
 92.7998046875 119.903320312 103.078125 -10.568359375 150.168945312 -14.013671875 c 6
EndSplineSet
EndChar

StartChar: D
Encoding: 68 68 4
Width: 333
VWidth: -76
Flags: HW
LayerCount: 2
Fore
SplineSet
99.599609375 9 m 1
 143.599609375 9 l 2
 186.033203125 9 239.599609375 87.8671875 239.599609375 223.2734375 c 2
 239.599609375 578.750976562 l 2
 239.599609375 717.0859375 184.030273438 795 143.599609375 795 c 2
 99.599609375 795 l 1
 99.599609375 9 l 1
273.599609375 224.849609375 m 2
 273.599609375 51.462890625 222.541992188 -77 143.599609375 -77 c 2
 69.599609375 -77 l 1
 64.599609375 -77 l 1
 64.599609375 -72 l 1
 64.599609375 876 l 1
 64.599609375 881 l 1
 69.599609375 881 l 1
 143.599609375 881 l 2
 223.764648438 881 273.599609375 736.581054688 273.599609375 579.150390625 c 2
 273.599609375 224.849609375 l 2
EndSplineSet
EndChar

StartChar: E
Encoding: 69 69 5
Width: 323
VWidth: -76
Flags: HW
LayerCount: 2
Fore
SplineSet
64.599609375 -77 m 1
 64.599609375 -72 l 1
 64.599609375 876 l 1
 64.599609375 881 l 1
 69.599609375 881 l 1
 269.599609375 881 l 1
 274.599609375 881 l 1
 274.599609375 876 l 1
 274.599609375 800 l 1
 274.599609375 795 l 1
 269.599609375 795 l 1
 99.599609375 795 l 1
 99.599609375 431 l 1
 254.599609375 431 l 1
 259.599609375 431 l 1
 259.599609375 426 l 1
 259.599609375 375 l 1
 259.599609375 370 l 1
 254.599609375 370 l 1
 99.599609375 370 l 1
 99.599609375 9 l 1
 269.599609375 9 l 1
 274.599609375 9 l 1
 274.599609375 4 l 1
 274.599609375 -72 l 1
 274.599609375 -77 l 1
 269.599609375 -77 l 1
 69.599609375 -77 l 1
 64.599609375 -77 l 1
EndSplineSet
EndChar

StartChar: F
Encoding: 70 70 6
Width: 320
VWidth: -76
Flags: HW
LayerCount: 2
Fore
SplineSet
64.599609375 -77 m 1
 64.599609375 -72 l 1
 64.599609375 876 l 1
 64.599609375 881 l 1
 69.599609375 881 l 1
 269.599609375 881 l 1
 274.599609375 881 l 1
 274.599609375 876 l 1
 274.599609375 800 l 1
 274.599609375 795 l 1
 269.599609375 795 l 1
 99.599609375 795 l 1
 99.599609375 429 l 1
 254.599609375 429 l 1
 259.599609375 429 l 1
 259.599609375 424 l 1
 259.599609375 375 l 1
 259.599609375 370 l 1
 254.599609375 370 l 1
 99.599609375 370 l 1
 99.599609375 -72 l 1
 99.599609375 -77 l 1
 94.599609375 -77 l 1
 69.599609375 -77 l 1
 64.599609375 -77 l 1
EndSplineSet
EndChar

StartChar: G
Encoding: 71 71 7
Width: 329
VWidth: -76
Flags: HW
LayerCount: 2
Fore
SplineSet
266.799804688 602 m 1
 261.799804688 602 l 1
 236.799804688 602 l 1
 231.799804688 602 l 1
 231.799804688 607 l 1
 231.799804688 695 l 2
 231.799804688 741.278320312 220.7265625 794 187.799804688 794 c 2
 136.799804688 794 l 1
 136.578125 794 l 1
 136.357421875 794.01953125 l 2
 99.9248046875 797.216796875 91.7998046875 632.173828125 91.7998046875 578.752929688 c 2
 91.7998046875 164.055664062 l 2
 91.7998046875 106.587890625 112.22265625 12 136.799804688 12 c 2
 187.799804688 12 l 2
 205.912109375 12 231.799804688 133.395507812 231.799804688 160.02734375 c 2
 231.799804688 261 l 1
 169.799804688 261 l 1
 164.799804688 261 l 1
 164.799804688 266 l 1
 164.799804688 342 l 1
 164.799804688 347 l 1
 169.799804688 347 l 1
 261.799804688 347 l 1
 266.799804688 347 l 1
 266.799804688 342.05859375 l 1
 266.799804688 -72 l 1
 266.799804688 -77 l 1
 261.799804688 -77 l 1
 236.799804688 -77 l 1
 231.799804688 -77 l 1
 231.799804688 -72 l 1
 231.799804688 -20.9169921875 l 1
 224.25 -48.98828125 212.307617188 -77 187.799804688 -77 c 2
 136.799804688 -77 l 2
 80.7587890625 -77 57.7998046875 48.7568359375 57.7998046875 163.489257812 c 2
 57.7998046875 579.150390625 l 2
 57.7998046875 690.083007812 76.0361328125 881 136.799804688 881 c 2
 187.799804688 881 l 2
 227.291015625 881 266.799804688 821.686523438 266.799804688 695 c 2
 266.799804688 607 l 1
 266.799804688 602 l 1
EndSplineSet
EndChar

StartChar: H
Encoding: 72 72 8
Width: 339
VWidth: -76
Flags: HW
LayerCount: 2
Fore
SplineSet
64.599609375 -77 m 1
 64.599609375 -72 l 1
 64.599609375 876 l 1
 64.599609375 881 l 1
 69.599609375 881 l 1
 94.599609375 881 l 1
 99.599609375 881 l 1
 99.599609375 876 l 1
 99.599609375 432.93359375 l 1
 239.599609375 431.067382812 l 1
 239.599609375 876 l 1
 239.599609375 881 l 1
 244.599609375 881 l 1
 268.599609375 881 l 1
 273.599609375 881 l 1
 273.599609375 876 l 1
 273.599609375 -72 l 1
 273.599609375 -77 l 1
 268.599609375 -77 l 1
 244.599609375 -77 l 1
 239.599609375 -77 l 1
 239.599609375 -72 l 1
 239.599609375 377 l 1
 99.599609375 377 l 1
 99.599609375 -72 l 1
 99.599609375 -77 l 1
 94.599609375 -77 l 1
 69.599609375 -77 l 1
 64.599609375 -77 l 1
EndSplineSet
EndChar

StartChar: I
Encoding: 73 73 9
Width: 250
VWidth: -76
Flags: HW
LayerCount: 2
Fore
SplineSet
44.2001953125 881 m 1
 49.2001953125 881 l 1
 199.200195312 881 l 1
 204.200195312 881 l 1
 204.200195312 876 l 1
 204.200195312 800 l 1
 204.200195312 795 l 1
 199.200195312 795 l 1
 148.200195312 795 l 1
 148.200195312 9 l 1
 199.200195312 9 l 1
 204.200195312 9 l 1
 204.200195312 4 l 1
 204.200195312 -72 l 1
 204.200195312 -77 l 1
 199.200195312 -77 l 1
 49.2001953125 -77 l 1
 44.2001953125 -77 l 1
 44.2001953125 -72 l 1
 44.2001953125 5 l 1
 44.2001953125 10.0166015625 l 1
 49.279296875 9.9365234375 l 1
 103.200195312 9.029296875 l 5
 103.200195312 795 l 5
 49.2001953125 795 l 1
 44.2001953125 795 l 1
 44.2001953125 800 l 1
 44.2001953125 876 l 1
 44.2001953125 881 l 1
EndSplineSet
EndChar

StartChar: J
Encoding: 74 74 10
Width: 322
VWidth: -76
Flags: HW
LayerCount: 2
Fore
SplineSet
225 881 m 1
 230 881 l 1
 255 881 l 1
 260 881 l 1
 260 876 l 1
 260 284.209960938 l 2
 260 92.2763671875 240.694335938 -77 181 -77 c 2
 130 -77 l 2
 67.6455078125 -77 51 69.7373046875 51 228 c 2
 51 288 l 1
 51 293 l 1
 56 293 l 1
 80 293 l 1
 85 293 l 1
 85 288 l 1
 85 228 l 2
 85 117.110351562 100.44921875 12 133.104492188 12 c 2
 181.104492188 10 l 2
 204.015625 10 225 114.551757812 225 284.826171875 c 2
 225 876 l 1
 225 881 l 1
EndSplineSet
EndChar

StartChar: K
Encoding: 75 75 11
Width: 311
VWidth: -76
Flags: HW
LayerCount: 2
Fore
SplineSet
64.599609375 -77 m 1
 64.599609375 -72 l 1
 64.599609375 876 l 1
 64.599609375 881 l 1
 69.599609375 881 l 1
 93.599609375 881 l 1
 98.599609375 881 l 1
 98.599609375 876 l 1
 98.599609375 433.172851562 l 1
 223.787109375 877.356445312 l 1
 224.814453125 881 l 1
 228.599609375 881 l 1
 261.599609375 881 l 1
 268.204101562 881 l 1
 266.412109375 874.709960938 l 1
 140.779296875 433.6484375 l 1
 273.438476562 -70.740234375 l 1
 275.067382812 -77 l 1
 268.599609375 -77 l 1
 237.599609375 -77 l 1
 233.741210938 -77 l 1
 232.762695312 -73.267578125 l 1
 118.459960938 362.814453125 l 1
 98.599609375 291.318359375 l 1
 98.599609375 -72 l 1
 98.599609375 -77 l 1
 93.599609375 -77 l 1
 69.599609375 -77 l 1
 64.599609375 -77 l 1
EndSplineSet
EndChar

StartChar: L
Encoding: 76 76 12
Width: 320
VWidth: -76
Flags: HW
LayerCount: 2
Fore
SplineSet
64.599609375 -77 m 1
 64.599609375 -72 l 1
 64.599609375 876 l 1
 64.599609375 881 l 1
 69.599609375 881 l 1
 94.599609375 881 l 1
 99.599609375 881 l 1
 99.599609375 876 l 1
 99.599609375 9 l 1
 269.599609375 9 l 1
 274.599609375 9 l 1
 274.599609375 4 l 1
 274.599609375 -72 l 1
 274.599609375 -77 l 1
 269.599609375 -77 l 1
 69.599609375 -77 l 1
 64.599609375 -77 l 1
EndSplineSet
EndChar

StartChar: M
Encoding: 77 77 13
Width: 341
VWidth: -76
InSpiro: 1
Flags: HW
LayerCount: 2
Fore
SplineSet
64.599609375 -75.982421875 m 1
 64.599609375 -70.982421875 l 1
 64.599609375 875.354492188 l 1
 64.599609375 880.302734375 l 1
 69.599609375 880.302734375 l 1
 96.9384765625 880.302734375 l 1
 101.249023438 880.302734375 l 1
 101.883789062 876.0390625 l 1
 169.478515625 421.80078125 l 1
 237.073242188 876.0390625 l 1
 237.708007812 880.302734375 l 1
 242.018554688 880.302734375 l 1
 269.357421875 880.302734375 l 1
 274.357421875 880.302734375 l 1
 274.357421875 875.354492188 l 1
 274.318359375 -70.982421875 l 1
 274.318359375 -75.982421875 l 1
 269.318359375 -75.982421875 l 1
 244.358398438 -75.982421875 l 1
 239.358398438 -75.982421875 l 1
 239.358398438 -70.982421875 l 1
 239.358398438 649.71875 l 1
 174.423828125 212.836914062 l 1
 169.484375 179.600585938 l 1
 164.533203125 212.8359375 l 1
 99.5986328125 648.708007812 l 1
 99.5986328125 -70.982421875 l 1
 99.5986328125 -75.982421875 l 1
 94.5986328125 -75.982421875 l 1
 69.599609375 -75.982421875 l 1
 64.599609375 -75.982421875 l 1
EndSplineSet
EndChar

StartChar: N
Encoding: 78 78 14
Width: 339
VWidth: -76
Flags: HW
LayerCount: 2
Fore
SplineSet
64.599609375 -77 m 1
 64.599609375 -72 l 1
 64.599609375 876 l 1
 64.599609375 881 l 1
 69.599609375 881 l 1
 98.599609375 881 l 1
 102.76953125 881 l 1
 103.518554688 876.897460938 l 1
 239.599609375 131.247070312 l 1
 239.599609375 876 l 1
 239.599609375 881 l 1
 244.599609375 881 l 1
 268.599609375 881 l 1
 273.599609375 881 l 1
 273.599609375 876 l 1
 273.599609375 -72 l 1
 273.599609375 -77 l 1
 268.599609375 -77 l 1
 244.599609375 -77 l 1
 240.4296875 -77 l 1
 239.680664062 -72.8974609375 l 1
 99.599609375 694.747070312 l 1
 99.599609375 -72 l 1
 99.599609375 -77 l 1
 94.599609375 -77 l 1
 69.599609375 -77 l 1
 64.599609375 -77 l 1
EndSplineSet
EndChar

StartChar: O
Encoding: 79 79 15
Width: 328
VWidth: -76
Flags: HW
LayerCount: 2
Fore
SplineSet
92.7998046875 225.254882812 m 2
 92.7998046875 125.556640625 113.69921875 10 136.799804688 10 c 2
 187.799804688 10 l 2
 210.932617188 10 232.799804688 124.63671875 232.799804688 225.254882812 c 2
 232.799804688 578.745117188 l 2
 232.799804688 671.680664062 216.947265625 794 187.799804688 794 c 2
 136.799804688 794 l 2
 106.6484375 794 92.7998046875 672.752929688 92.7998046875 578.745117188 c 2
 92.7998046875 225.254882812 l 2
136.799804688 -77 m 2
 89.494140625 -77 57.7998046875 47.98828125 57.7998046875 224.849609375 c 2
 57.7998046875 581.129882812 l 2
 57.7998046875 755.076171875 90.51171875 881 137.799804688 881 c 2
 187.799804688 881 l 2
 233.154296875 881 266.799804688 754.060546875 266.799804688 579.150390625 c 2
 266.799804688 224.849609375 l 2
 266.799804688 48.05078125 238.068359375 -77 187.799804688 -77 c 2
 136.799804688 -77 l 2
EndSplineSet
EndChar

StartChar: P
Encoding: 80 80 16
Width: 328
VWidth: -76
Flags: HW
LayerCount: 2
Fore
SplineSet
99.599609375 794 m 1
 99.599609375 421 l 1
 168.599609375 421 l 2
 200.034179688 421 239.599609375 467.456054688 239.599609375 536.452148438 c 2
 239.599609375 665.719726562 l 2
 239.599609375 723.311523438 193.96875 794 168.599609375 794 c 2
 99.599609375 794 l 1
64.599609375 -77 m 1
 64.599609375 -72 l 1
 64.599609375 876 l 1
 64.599609375 881 l 1
 69.599609375 881 l 1
 168.599609375 881 l 2
 219.37109375 881 273.599609375 781.84765625 273.599609375 664.99609375 c 2
 273.599609375 536.186523438 l 2
 273.599609375 413.8828125 220.59375 340 168.599609375 340 c 2
 99.599609375 340 l 1
 99.599609375 -72 l 1
 99.599609375 -77 l 1
 94.599609375 -77 l 1
 69.599609375 -77 l 1
 64.599609375 -77 l 1
EndSplineSet
EndChar

StartChar: Q
Encoding: 81 81 17
Width: 329
VWidth: -74
Flags: HW
LayerCount: 2
Fore
SplineSet
138.229492188 3 m 1
 138.653320312 2.9267578125 l 2
 141.08984375 2.5048828125 182.83203125 -2.51171875 189.555664062 10.1533203125 c 1
 147.9921875 155.625976562 l 1
 147.37890625 157.771484375 l 1
 148.56640625 159.661132812 l 1
 170.56640625 194.661132812 l 1
 176.607421875 204.270507812 l 1
 179.620117188 193.327148438 l 1
 213.807617188 69.17578125 l 1
 221.088867188 89.8134765625 232.799804688 135.713867188 232.799804688 220 c 2
 232.799804688 580 l 2
 232.799804688 674.120117188 216.947265625 798 187.799804688 798 c 2
 137.799804688 798 l 2
 107.638671875 798 92.7998046875 674.155273438 92.7998046875 579 c 2
 92.7998046875 220 l 2
 92.7998046875 119.106445312 114.6640625 3 137.799804688 3 c 2
 138.229492188 3 l 1
214.715820312 -46.8828125 m 2
 204.454101562 -47.61328125 l 1
 203.046875 -43 l 1
 209.799804688 -43 l 2
 210.799804688 -43 214.483398438 -45.91015625 214.715820312 -46.8828125 c 2
223.017578125 -108.458984375 m 1
 208.131835938 -59.6669921875 l 1
 203.12890625 -65.4501953125 194.959960938 -73 184.799804688 -73 c 2
 137.799804688 -73 l 2
 90.546875 -73 57.7998046875 49.935546875 57.7998046875 226.86328125 c 2
 57.7998046875 584.125976562 l 2
 57.7998046875 758.081054688 90.5263671875 883 137.799804688 883 c 2
 187.799804688 883 l 2
 233.102539062 883 267.799804688 758.229492188 267.799804688 583.411132812 c 2
 267.799804688 227.46484375 l 2
 267.799804688 97.765625 239.283203125 16.17578125 235.068359375 4.80859375 c 1
 267.595703125 -105.586914062 l 1
 269.485351562 -112 l 1
 262.799804688 -112 l 1
 227.799804688 -112 l 1
 224.09765625 -112 l 1
 223.017578125 -108.458984375 l 1
EndSplineSet
EndChar

StartChar: R
Encoding: 82 82 18
Width: 327
VWidth: -76
Flags: HW
LayerCount: 2
Fore
SplineSet
99.599609375 794 m 1
 99.599609375 418 l 1
 169.599609375 418 l 2
 201.0390625 418 239.599609375 463.440429688 239.599609375 532.477539062 c 2
 239.599609375 665.706054688 l 2
 239.599609375 723.37890625 194.921875 794 169.599609375 794 c 2
 99.599609375 794 l 1
44.599609375 -77 m 5
 44.599609375 -72 l 5
 44.599609375 876 l 5
 44.599609375 881 l 5
 49.599609375 881 l 5
 169.599609375 881 l 2
 220.37109375 881 274.599609375 781.971679688 274.599609375 665.265625 c 2
 274.599609375 532.658203125 l 2
 274.599609375 409.3984375 211.583007812 355.5390625 198.083984375 345.409179688 c 1
 274.51953125 -71.1064453125 l 1
 275.58984375 -77 l 1
 269.599609375 -77 l 1
 240.599609375 -77 l 1
 236.422851562 -77 l 1
 235.6796875 -72.890625 l 1
 160.422851562 343 l 1
 99.599609375 343 l 1
 99.599609375 -72 l 1
 99.599609375 -77 l 1
 94.599609375 -77 l 1
 49.599609375 -77 l 5
 44.599609375 -77 l 5
EndSplineSet
EndChar

StartChar: S
Encoding: 83 83 19
Width: 322
VWidth: -76
Flags: HW
LayerCount: 2
Fore
SplineSet
54.400390625 251 m 1
 59.400390625 251 l 1
 84.400390625 251 l 1
 89.400390625 251 l 1
 89.400390625 246 l 1
 89.400390625 166 l 2
 89.400390625 78.310546875 127.814453125 10 147.400390625 10 c 2
 172.350585938 10 l 2
 215.6328125 10.85546875 229.400390625 101.08203125 229.400390625 164.229492188 c 0
 229.400390625 352.205078125 134.581054688 335.236328125 83.8154296875 449.955078125 c 0
 63.443359375 496.279296875 54.400390625 552.301757812 54.400390625 614.064453125 c 2
 54.400390625 669.428710938 l 2
 54.400390625 789.321289062 91.46875 881 147.400390625 881 c 2
 172.400390625 881 l 2
 224.05859375 881 264.400390625 760.766601562 264.400390625 636 c 2
 264.400390625 548 l 1
 264.400390625 543 l 1
 259.400390625 543 l 1
 234.400390625 543 l 1
 229.400390625 543 l 1
 229.400390625 548 l 1
 229.400390625 636 l 2
 229.400390625 731.5859375 193.114257812 793.229492188 172.307617188 794 c 2
 147.400390625 794 l 2
 103.96875 794 89.400390625 711.78125 89.400390625 637.79296875 c 0
 89.400390625 449.765625 185.157226562 466.9609375 232.997070312 357.973632812 c 0
 252.291992188 312.793945312 264.400390625 257.8046875 264.400390625 194.87890625 c 2
 264.400390625 132.59375 l 2
 264.400390625 11.7158203125 228.287109375 -77 172.400390625 -77 c 2
 147.400390625 -77 l 2
 96.818359375 -77 54.400390625 40.111328125 54.400390625 166 c 2
 54.400390625 246 l 1
 54.400390625 251 l 1
EndSplineSet
EndChar

StartChar: T
Encoding: 84 84 20
Width: 286
VWidth: -76
Flags: HW
LayerCount: 2
Fore
SplineSet
128.400390625 -77 m 1
 128.400390625 -72 l 1
 128.400390625 806 l 1
 42.400390625 806 l 1
 37.400390625 806 l 1
 37.400390625 811 l 1
 37.400390625 876 l 1
 37.400390625 881 l 1
 42.400390625 881 l 1
 242.400390625 881 l 1
 247.400390625 881 l 1
 247.400390625 876 l 1
 247.400390625 811 l 1
 247.400390625 806 l 1
 242.400390625 806 l 1
 160.400390625 806 l 1
 160.400390625 -72 l 1
 160.400390625 -77 l 1
 155.400390625 -77 l 1
 133.400390625 -77 l 1
 128.400390625 -77 l 1
EndSplineSet
EndChar

StartChar: U
Encoding: 85 85 21
Width: 333
VWidth: -76
Flags: HW
LayerCount: 2
Fore
SplineSet
234.5 881 m 1
 239.5 881 l 1
 263.5 881 l 1
 268.5 881 l 1
 268.5 876 l 1
 268.5 163.4765625 l 2
 268.5 46.7666015625 221.296875 -77 176.5 -77 c 2
 151.5 -77 l 2
 107.689453125 -77 59.5 46.73828125 59.5 163.4765625 c 2
 59.5 876 l 1
 59.5 881 l 1
 64.5 881 l 1
 89.5 881 l 1
 94.5 881 l 1
 94.5 876 l 1
 94.5 164.209960938 l 2
 94.5 93.8232421875 126.28515625 9 151.5 9 c 2
 176.5 9 l 2
 202.71875 9 234.5 93.814453125 234.5 164.209960938 c 2
 234.5 876 l 1
 234.5 881 l 1
EndSplineSet
EndChar

StartChar: V
Encoding: 86 86 22
Width: 300
VWidth: -76
Flags: HW
LayerCount: 2
Fore
SplineSet
154.704101562 161 m 1
 218.202148438 757.286132812 l 1
 219.200195312 876.041992188 l 1
 219.2421875 881 l 1
 224.200195312 881 l 1
 249.200195312 881 l 1
 254.200195312 881 l 1
 254.200195312 876 l 1
 254.200195312 758.241210938 l 1
 254.200195312 757.979492188 l 1
 254.171875 757.719726562 l 1
 165.171875 -72.52734375 l 1
 164.698242188 -77 l 1
 160.200195312 -77 l 1
 138.200195312 -77 l 1
 133.702148438 -77 l 1
 133.228515625 -72.52734375 l 1
 44.228515625 757.719726562 l 1
 44.2001953125 757.979492188 l 1
 44.2001953125 758.241210938 l 1
 44.2001953125 876 l 1
 44.2001953125 881 l 1
 49.2001953125 881 l 1
 74.2001953125 881 l 1
 79.158203125 881 l 1
 79.2001953125 876.041992188 l 1
 80.1982421875 757.286132812 l 1
 143.696289062 161 l 1
 154.704101562 161 l 1
EndSplineSet
EndChar

StartChar: W
Encoding: 87 87 23
Width: 327
VWidth: -76
Flags: HW
LayerCount: 2
Fore
SplineSet
214.883789062 120.137695312 m 1
 232.799804688 361.180664062 l 1
 231.799804688 875.990234375 l 1
 231.790039062 881 l 1
 236.799804688 881 l 1
 262.799804688 881 l 1
 267.799804688 881 l 1
 267.799804688 876 l 1
 267.799804688 366.374023438 l 1
 267.799804688 366.1953125 l 1
 267.787109375 366.017578125 l 1
 235.787109375 -72.3603515625 l 1
 235.451171875 -77 l 1
 230.799804688 -77 l 1
 203.799804688 -77 l 1
 199.29296875 -77 l 1
 198.826171875 -72.517578125 l 1
 162.799804688 273.69140625 l 1
 126.7734375 -72.517578125 l 1
 126.306640625 -77 l 1
 121.799804688 -77 l 1
 95.7998046875 -77 l 1
 91.158203125 -77 l 1
 90.8134765625 -72.37109375 l 1
 57.8134765625 366.005859375 l 1
 57.7998046875 366.189453125 l 1
 57.7998046875 366.374023438 l 1
 57.7998046875 876 l 1
 57.7998046875 881 l 1
 62.7998046875 881 l 1
 87.7998046875 881 l 1
 92.7998046875 881 l 1
 92.7998046875 876 l 1
 92.7998046875 361.1875 l 1
 110.7109375 122.649414062 l 1
 144.799804688 436.270507812 l 1
 144.799804688 576 l 1
 144.799804688 581 l 1
 149.799804688 581 l 1
 175.799804688 581 l 1
 180.799804688 581 l 1
 180.799804688 576 l 1
 180.799804688 436.268554688 l 1
 214.883789062 120.137695312 l 1
EndSplineSet
EndChar

StartChar: X
Encoding: 88 88 24
Width: 305
VWidth: -76
Flags: HW
LayerCount: 2
Fore
SplineSet
223.745117188 -77 m 1
 223.745117188 -72 l 1
 223.745117188 48.4755859375 l 1
 152.810546875 382.615234375 l 1
 83.7451171875 48.48828125 l 1
 83.7451171875 -72 l 1
 83.7451171875 -77 l 1
 78.7451171875 -77 l 1
 53.7451171875 -77 l 1
 48.7451171875 -77 l 1
 48.7451171875 -72 l 1
 48.7451171875 68.525390625 l 1
 48.7451171875 69.0361328125 l 1
 48.8515625 69.537109375 l 1
 133.638671875 471.301757812 l 1
 48.8505859375 875.044921875 l 1
 47.599609375 881 l 1
 53.7451171875 881 l 1
 82.7451171875 881 l 1
 86.81640625 881 l 1
 87.6416015625 877.013671875 l 1
 152.780273438 562.487304688 l 1
 218.852539062 877.028320312 l 1
 219.686523438 881 l 1
 223.745117188 881 l 1
 252.745117188 881 l 1
 258.876953125 881 l 1
 257.643554688 875.056640625 l 1
 173.850585938 471.301757812 l 1
 257.642578125 69.525390625 l 1
 257.745117188 69.0302734375 l 1
 257.745117188 68.525390625 l 1
 257.745117188 -72 l 1
 257.745117188 -77 l 1
 252.745117188 -77 l 1
 228.745117188 -77 l 1
 223.745117188 -77 l 1
EndSplineSet
EndChar

StartChar: Y
Encoding: 89 89 25
Width: 298
VWidth: -76
Flags: HW
LayerCount: 2
Fore
SplineSet
165.5 -77 m 1
 160.5 -77 l 1
 134.5 -77 l 1
 129.5 -77 l 1
 129.5 -72 l 1
 129.5 343.107421875 l 1
 42.6044921875 757.236328125 l 1
 42.5 757.734375 l 1
 42.5 758.2421875 l 1
 42.5 876 l 1
 42.5 881 l 1
 47.5 881 l 1
 72.5 881 l 1
 77.5 881 l 1
 77.5 876 l 1
 77.5 775.51953125 l 1
 147.47265625 442.44921875 l 1
 217.5 779.513671875 l 1
 217.5 876 l 1
 217.5 881 l 1
 222.5 881 l 1
 247.5 881 l 1
 252.5 881 l 1
 252.5 876 l 1
 252.5 758.2421875 l 1
 252.5 757.734375 l 1
 252.395507812 757.236328125 l 1
 165.5 343.107421875 l 1
 165.5 -72 l 1
 165.5 -77 l 1
EndSplineSet
EndChar

StartChar: Z
Encoding: 90 90 26
Width: 305
VWidth: -76
Flags: HW
LayerCount: 2
Fore
SplineSet
256.599609375 -77 m 1
 251.599609375 -77 l 1
 52.599609375 -77 l 1
 47.599609375 -77 l 1
 47.599609375 -72 l 1
 47.599609375 4 l 1
 47.599609375 4.521484375 l 1
 47.70703125 5.025390625 l 1
 216.434570312 795 l 1
 52.599609375 795 l 1
 47.599609375 795 l 1
 47.599609375 800 l 1
 47.599609375 876 l 1
 47.599609375 881 l 1
 52.599609375 881 l 1
 251.599609375 881 l 1
 256.599609375 881 l 1
 256.599609375 876 l 1
 256.599609375 800.866210938 l 1
 256.599609375 800.350585938 l 1
 256.4921875 799.846679688 l 1
 87.7646484375 9 l 1
 251.599609375 9 l 1
 256.599609375 9 l 1
 256.599609375 4 l 1
 256.599609375 -72 l 1
 256.599609375 -77 l 1
EndSplineSet
EndChar

StartChar: a
Encoding: 97 97 27
Width: 326
VWidth: -55
Flags: HWO
LayerCount: 2
Fore
SplineSet
144.296875 303.098632812 m 1
 123.475585938 293.123046875 86 240.318359375 86 190 c 2
 86 132 l 2
 86 79.4111328125 119.727539062 5 132 5 c 2
 163 5 l 2
 189.362304688 5 225 53.68359375 225 155 c 2
 225 310.51953125 l 1
 144.296875 303.098632812 l 1
225 407.956054688 m 2
 223.995117188 459.290039062 196.130859375 521 168 521 c 2
 131 521 l 2
 110.783203125 521 108.255859375 458 86 458 c 0
 59.4560546875 458 57.0302734375 478.571289062 60.060546875 498.7734375 c 0
 68.23046875 548.817382812 99.0048828125 586 131 586 c 2
 168 586 l 2
 208.986328125 586 269 529.209960938 269 391.153320312 c 2
 269 115.611328125 l 2
 269 102.466796875 268.18359375 83.7021484375 269.049804688 67.396484375 c 0
 270.212890625 45.4873046875 275.885742188 35.6953125 279.737304688 35.89453125 c 2
 283.395507812 36.083984375 l 1
 284.681640625 32.708984375 l 2
 285.732421875 29.9501953125 285.795760067 26.9218740703 285.822265625 22.9873046875 c 0
 269.12109375 -41.921875 l 1
 241.12109375 -36.921875 l 1
 238.049804688 -36.3740234375 l 1
 237.192382812 -33.3740234375 l 1
 228 14 l 1
 217.140625 -5.4072265625 194.509765625 -43 156 -43 c 2
 131 -43 l 2
 100.201171875 -43 51 26.6533203125 51 128.951171875 c 2
 51 185.940429688 l 2
 51 269.986328125 94.51953125 338.583984375 140.763671875 361.303710938 c 2
 141.552734375 361.69140625 l 1
 142.428710938 361.790039062 l 1
 225 371.116210938 l 1
 225 407.956054688 l 2
EndSplineSet
EndChar

StartChar: b
Encoding: 98 98 28
Width: 333
VWidth: -75
Flags: HW
LayerCount: 2
Fore
SplineSet
156.599609375 490 m 2
 122.432617188 490 99.599609375 429.568359375 99.599609375 370 c 2
 99.599609375 108 l 2
 99.599609375 56.2041015625 129.119140625 1 156.599609375 1 c 2
 181.599609375 1 l 2
 212.7109375 1 239.599609375 71.046875 239.599609375 103 c 2
 239.599609375 370 l 2
 239.599609375 423.403320312 212.615234375 490 181.599609375 490 c 2
 156.599609375 490 l 2
99.599609375 -84 m 1
 94.599609375 -84 l 1
 69.599609375 -84 l 1
 64.599609375 -84 l 1
 64.599609375 -79 l 1
 64.599609375 885 l 1
 64.599609375 890 l 1
 69.599609375 890 l 1
 94.599609375 890 l 1
 99.599609375 890 l 1
 99.599609375 885 l 1
 99.599609375 540.5546875 l 2
 99.599609375 539.775390625 99.7041015625 538.887695312 99.7041015625 538.887695312 c 1
 109.404296875 541.862304688 135.567382812 568.268554688 156.599609375 568.268554688 c 2
 181.599609375 568.268554688 l 2
 225.6875 568.268554688 273.599609375 471.9453125 273.599609375 367.341796875 c 2
 273.599609375 101.08984375 l 2
 273.599609375 10.4248046875 236.4453125 -84 181.599609375 -84 c 2
 156.599609375 -84 l 2
 134.247070312 -84 113.56640625 -58.2841796875 99.599609375 -38.5078125 c 1
 99.599609375 -79 l 1
 99.599609375 -84 l 1
EndSplineSet
EndChar

StartChar: c
Encoding: 99 99 29
Width: 324
VWidth: -51
Flags: HW
LayerCount: 2
Fore
SplineSet
90.099609375 133.771484375 m 2
 90.099609375 51.05859375 112.334960938 21.80078125 135.188476562 21 c 2
 197.099609375 21 l 2
 204.706054688 21 230.099609375 53.1318359375 230.099609375 128 c 2
 230.099609375 188 l 1
 230.099609375 193 l 1
 235.099609375 193 l 1
 260.099609375 193 l 1
 265.099609375 193 l 1
 265.099609375 188 l 1
 265.099609375 131 l 2
 265.099609375 7.0341796875 237.995117188 -52 197.099609375 -52 c 2
 135.099609375 -52 l 2
 84.4033203125 -52 56.099609375 15.814453125 56.099609375 133.15625 c 2
 56.099609375 415.813476562 l 2
 56.099609375 533.33203125 85.5458984375 599 137.099609375 599 c 2
 194.099609375 599 l 2
 234.389648438 599 265.099609375 522.931640625 265.099609375 411 c 2
 265.099609375 350 l 1
 265.099609375 345 l 1
 260.099609375 345 l 1
 235.099609375 345 l 1
 230.099609375 345 l 1
 230.099609375 350 l 1
 230.099609375 411 l 2
 230.099609375 481.006835938 201.287109375 527 194.099609375 527 c 2
 137.099609375 527 l 2
 113.909179688 527 90.099609375 484.473632812 90.099609375 414.228515625 c 2
 90.099609375 133.771484375 l 2
EndSplineSet
EndChar

StartChar: d
Encoding: 100 100 30
Width: 329
VWidth: -74
Flags: HW
LayerCount: 2
Fore
SplineSet
161.400390625 497 m 2
 207.233398438 497 228.400390625 425.431640625 228.400390625 367 c 2
 228.400390625 105 l 2
 228.400390625 52.7958984375 199.919921875 -12 161.400390625 -12 c 2
 136.400390625 -12 l 2
 93.51171875 -12 88.400390625 67.953125 88.400390625 100 c 6
 88.400390625 367 l 6
 88.400390625 419.596679688 93.416015625 497 136.400390625 497 c 2
 161.400390625 497 l 2
228.400390625 -25 m 1
 228.400390625 -77 l 1
 273.400390625 -77 l 1
 273.400390625 877 l 1
 228.400390625 877 l 1
 228.400390625 537.557617188 l 2
 228.400390625 507.045898438 173.267578125 555.37109375 161.400390625 555.37109375 c 2
 136.400390625 555.37109375 l 2
 104.48828125 555.37109375 44.400390625 469.588867188 44.400390625 364.373046875 c 2
 44.400390625 98.1640625 l 2
 44.400390625 6.72265625 93.24609375 -77 136.400390625 -77 c 2
 161.400390625 -77 l 2
 180.23828125 -77 204.885742188 -44.7822265625 219.181640625 -22.3154296875 c 2
 228.400390625 -7.830078125 l 1
 228.400390625 -25 l 1
EndSplineSet
EndChar

StartChar: e
Encoding: 101 101 31
Width: 327
VWidth: -50
Flags: HW
LayerCount: 2
Fore
SplineSet
93.099609375 138 m 2
 93.099609375 53.568359375 127.604492188 8.7919921875 148.1953125 8 c 2
 188.099609375 8 l 2
 200.26171875 8 233.099609375 18.5322265625 233.099609375 90 c 2
 233.099609375 153 l 1
 233.099609375 158 l 1
 238.099609375 158 l 1
 263.099609375 158 l 1
 268.099609375 158 l 1
 268.099609375 153 l 1
 268.099609375 93 l 2
 268.099609375 -33.3271484375 225.909179688 -47 188.099609375 -47 c 2
 148.099609375 -47 l 2
 95.4228515625 -47 58.099609375 23.833984375 58.099609375 138 c 2
 58.099609375 425 l 2
 58.099609375 544.624023438 87.0361328125 598 138.099609375 598 c 2
 188.099609375 598 l 2
 227.998046875 598 268.099609375 523.556640625 268.099609375 411 c 2
 268.099609375 269 l 1
 268.099609375 263.942382812 l 1
 263.041992188 264 l 1
 93.099609375 265.942382812 l 1
 93.099609375 138 l 2
93.099609375 418 m 2
 93.099609375 324 l 1
 233.099609375 324 l 1
 233.099609375 406 l 2
 233.099609375 496.129882812 196.288085938 541 188.099609375 541 c 6
 138.099609375 541 l 6
 114.922851562 541 93.099609375 489.741210938 93.099609375 418 c 2
EndSplineSet
EndChar

StartChar: f
Encoding: 102 102 32
Width: 298
VWidth: -78
Flags: HW
LayerCount: 2
Fore
SplineSet
127.799804688 -77 m 1
 127.799804688 -72 l 1
 127.799804688 489.215820312 l 1
 45.7998046875 489.215820312 l 1
 40.7998046875 489.215820312 l 1
 40.7998046875 494.147460938 l 1
 40.7998046875 568.122070312 l 1
 40.7998046875 573.053710938 l 1
 45.7998046875 573.053710938 l 1
 127.799804688 573.053710938 l 1
 127.799804688 649 l 2
 127.799804688 752.568359375 154.12890625 897 195.799804688 897 c 2
 245.799804688 897 l 1
 250.799804688 897 l 1
 250.799804688 892 l 1
 250.799804688 817 l 1
 250.799804688 812 l 1
 245.799804688 812 l 1
 195.918945312 812 l 2
 182.842773438 811.376953125 163.799804688 720.625976562 163.799804688 649 c 2
 163.799804688 573.053710938 l 1
 245.799804688 573.053710938 l 1
 250.799804688 573.053710938 l 1
 250.799804688 568.122070312 l 1
 250.799804688 494.147460938 l 1
 250.799804688 489.215820312 l 1
 245.799804688 489.215820312 l 1
 163.799804688 489.215820312 l 1
 163.799804688 -72 l 1
 163.799804688 -77 l 1
 158.799804688 -77 l 1
 132.799804688 -77 l 1
 127.799804688 -77 l 1
EndSplineSet
EndChar

StartChar: g
Encoding: 103 103 33
Width: 333
VWidth: -33
Flags: HW
LayerCount: 2
Fore
SplineSet
174.799804688 53 m 2
 209.973632812 53 231.799804688 112.146484375 231.799804688 170.545898438 c 2
 231.799804688 427.188476562 l 2
 231.799804688 477.924804688 202.280273438 532 174.799804688 532 c 2
 149.799804688 532 l 2
 118.688476562 532 91.7998046875 463.385742188 91.7998046875 432.0859375 c 2
 91.7998046875 170.545898438 l 2
 91.7998046875 118.234375 118.784179688 53 149.799804688 53 c 2
 174.799804688 53 l 2
231.799804688 619 m 1
 236.799804688 619 l 1
 261.799804688 619 l 1
 266.799804688 619 l 1
 266.799804688 614 l 1
 266.799804688 -66 l 2
 266.799804688 -239.791992188 232.159179688 -276 174.799804688 -276 c 2
 149.799804688 -276 l 2
 92.087890625 -276 57.7998046875 -228.68359375 57.7998046875 -68 c 2
 57.7998046875 -17 l 1
 57.7998046875 -12.2041015625 l 1
 62.591796875 -12.00390625 l 1
 86.591796875 -11.00390625 l 1
 91.7998046875 -10.787109375 l 1
 91.7998046875 -16 l 1
 91.7998046875 -66 l 2
 91.7998046875 -180.672851562 113.337890625 -189 149.799804688 -189 c 2
 174.799804688 -189 l 2
 211.734375 -189 231.799804688 -188.600585938 231.799804688 -66 c 2
 231.799804688 -2 l 2
 231.799804688 -1.458984375 231.737304688 -0.630859375 231.737304688 -0.630859375 c 1
 222.291992188 -4.00390625 195.844726562 -32 174.799804688 -32 c 2
 149.799804688 -32 l 2
 105.655273438 -32 57.7998046875 65.86328125 57.7998046875 169.8984375 c 2
 57.7998046875 432.859375 l 2
 57.7998046875 523.024414062 94.8837890625 619 149.799804688 619 c 2
 174.799804688 619 l 2
 197.321289062 619 218.140625 591.547851562 231.799804688 571.696289062 c 1
 231.799804688 614 l 1
 231.799804688 619 l 1
EndSplineSet
EndChar

StartChar: h
Encoding: 104 104 34
Width: 335
VWidth: -75
Flags: HW
LayerCount: 2
Fore
SplineSet
64.599609375 -85 m 1
 64.599609375 -80 l 1
 64.599609375 884 l 1
 64.599609375 889 l 1
 69.599609375 889 l 1
 94.599609375 889 l 1
 99.599609375 889 l 1
 99.599609375 884 l 1
 99.599609375 485.962890625 l 1
 112.884765625 528.623046875 135.087890625 567.28515625 157.599609375 567.28515625 c 2
 182.599609375 567.28515625 l 2
 227.327148438 567.28515625 274.599609375 459.0234375 274.599609375 283.232421875 c 2
 274.599609375 -80 l 1
 274.599609375 -85 l 1
 269.599609375 -85 l 1
 244.599609375 -85 l 1
 239.599609375 -85 l 1
 239.599609375 -80 l 1
 239.599609375 287 l 2
 239.599609375 400.999023438 213.58203125 489 182.599609375 489 c 2
 157.599609375 489 l 2
 138.475585938 489 99.599609375 347.200195312 99.599609375 264 c 2
 99.599609375 -80 l 1
 99.599609375 -85 l 1
 94.599609375 -85 l 1
 69.599609375 -85 l 1
 64.599609375 -85 l 1
EndSplineSet
EndChar

StartChar: j
Encoding: 106 106 35
Width: 205
VWidth: -51
Flags: HW
LayerCount: 2
Fore
SplineSet
91.7001953125 685 m 1
 91.7001953125 690 l 1
 91.7001953125 813 l 1
 91.7001953125 818.27734375 l 1
 96.9697265625 817.993164062 l 1
 133.969726562 815.993164062 l 1
 138.700195312 815.737304688 l 1
 138.700195312 811 l 1
 138.700195312 690 l 1
 138.700195312 685 l 1
 133.700195312 685 l 1
 96.7001953125 685 l 1
 91.7001953125 685 l 1
99.7001953125 17.365234375 m 1
 99.7001953125 521.999023438 l 1
 57.7001953125 522 l 5
 52.7001953125 522 l 5
 52.7001953125 527 l 5
 52.7001953125 596 l 5
 52.7001953125 601 l 5
 57.7001953125 601 l 5
 133.700195312 601 l 1
 138.700195312 601 l 1
 138.700195312 596 l 1
 138.700195312 19.244140625 l 2
 134.99609375 -165.595703125 101.20703125 -184.084960938 65.4501953125 -194.78515625 c 2
 65.1318359375 -194.881835938 l 1
 64.8037109375 -194.934570312 l 1
 21.8037109375 -201.934570312 l 1
 16 -202.879882812 l 1
 16 -197 l 1
 16 -178 l 1
 16 -174.073242188 l 1
 19.8154296875 -173.142578125 l 1
 68 -154 l 2
 96.4545834759 -142.695674078 102 -25 99.7001953125 17.365234375 c 1
EndSplineSet
EndChar

StartChar: k
Encoding: 107 107 36
Width: 311
VWidth: -78
Flags: HW
LayerCount: 2
Fore
SplineSet
64.599609375 -77 m 1
 64.599609375 -72 l 1
 64.599609375 892 l 1
 64.599609375 897 l 1
 69.599609375 897 l 1
 93.599609375 897 l 1
 98.599609375 897 l 1
 98.599609375 892 l 1
 98.599609375 279.685546875 l 1
 213.901367188 592.821289062 l 1
 215.099609375 596.075195312 l 1
 218.599609375 596.075195312 l 1
 256.599609375 596.075195312 l 1
 263.75390625 596.075195312 l 1
 261.294921875 589.42578125 l 1
 145.920898438 277.37890625 l 1
 273.299804688 -70.2958984375 l 1
 275.731445312 -77 l 1
 268.599609375 -77 l 1
 231.599609375 -77 l 1
 228.103515625 -77 l 1
 226.903320312 -73.7158203125 l 1
 121.581054688 214.485351562 l 1
 98.599609375 152.108398438 l 1
 98.599609375 -72 l 1
 98.599609375 -77 l 1
 93.599609375 -77 l 1
 69.599609375 -77 l 1
 64.599609375 -77 l 1
EndSplineSet
EndChar

StartChar: l
Encoding: 108 108 37
Width: 192
VWidth: -69
Flags: HW
LayerCount: 2
Fore
SplineSet
96.400390625 -99 m 1
 96.400390625 -94 l 1
 96.400390625 802 l 1
 42.400390625 802 l 1
 37.400390625 802 l 1
 37.400390625 807 l 1
 37.400390625 870 l 1
 37.400390625 875 l 1
 42.400390625 875 l 1
 121.400390625 875 l 1
 126.400390625 875 l 1
 126.400390625 870 l 1
 126.400390625 -94 l 1
 126.400390625 -99 l 1
 121.400390625 -99 l 1
 101.400390625 -99 l 1
 96.400390625 -99 l 1
EndSplineSet
EndChar

StartChar: m
Encoding: 109 109 38
Width: 334
VWidth: -51
Flags: HW
LayerCount: 2
Fore
SplineSet
61.2001953125 -52 m 1
 61.2001953125 -47 l 1
 61.2001953125 594 l 1
 61.2001953125 599 l 1
 66.2001953125 599 l 1
 91.2001953125 599 l 1
 96.2001953125 599 l 1
 96.2001953125 594 l 1
 96.2001953125 520.943359375 l 1
 106.390625 563.72265625 119.366210938 599 141.200195312 599 c 0
 162.33984375 599 168.885742188 549.153320312 172.369140625 524.577148438 c 1
 180.604492188 551.043945312 195.51953125 599 216.200195312 599 c 0
 258.885742188 599 271.200195312 488.548828125 271.200195312 326.22265625 c 2
 271.200195312 -47 l 1
 271.200195312 -52 l 1
 266.200195312 -52 l 1
 241.200195312 -52 l 1
 236.200195312 -52 l 1
 236.200195312 -47 l 1
 236.200195312 332 l 2
 236.200195312 381.203125 232.995117188 514.018554688 216.209960938 522.852539062 c 1
 208.212890625 517.647460938 184.200195312 468.151367188 184.200195312 332 c 2
 184.200195312 -47 l 1
 184.200195312 -52 l 1
 179.200195312 -52 l 1
 153.200195312 -52 l 1
 148.200195312 -52 l 1
 148.200195312 -47 l 1
 148.200195312 332 l 2
 148.200195312 357.200195312 147.831054688 492.982421875 136.702148438 518.82421875 c 1
 124.155273438 492.810546875 96.2001953125 365.28125 96.2001953125 332 c 2
 96.2001953125 -47 l 1
 96.2001953125 -52 l 1
 91.2001953125 -52 l 1
 66.2001953125 -52 l 1
 61.2001953125 -52 l 1
EndSplineSet
EndChar

StartChar: n
Encoding: 110 110 39
Width: 333
VWidth: -51
Flags: HW
LayerCount: 2
Fore
SplineSet
51.2001953125 -52 m 1
 51.2001953125 -47 l 1
 51.2001953125 594 l 1
 51.2001953125 599 l 1
 56.2001953125 599 l 1
 91.2001953125 599 l 1
 96.2001953125 599 l 1
 96.2001953125 594 l 1
 96.2001953125 507.022460938 l 1
 109.736328125 551.368164062 129.662109375 591.045898438 153.200195312 591.045898438 c 2
 190.200195312 591.045898438 l 2
 242 591.045898438 270.200195312 491.588867188 270.200195312 315.346679688 c 2
 270.200195312 -47 l 5
 270.200195312 -52 l 5
 265.200195312 -52 l 5
 241.200195312 -52 l 5
 236.200195312 -52 l 5
 236.200195312 -47 l 5
 236.200195312 320 l 2
 236.200195312 434.953125 224.635742188 538.178710938 190.140625 539 c 2
 153.200195312 539 l 2
 137.361328125 539 108.564453125 453.592773438 96.2001953125 345.723632812 c 1
 96.2001953125 -47 l 1
 96.2001953125 -52 l 1
 91.2001953125 -52 l 1
 56.2001953125 -52 l 1
 51.2001953125 -52 l 1
EndSplineSet
EndChar

StartChar: o
Encoding: 111 111 40
Width: 322
VWidth: -51
Flags: HW
LayerCount: 2
Fore
SplineSet
88.400390625 191.640625 m 2
 88.400390625 92.505859375 109.461914062 24 133.400390625 24 c 2
 184.400390625 24 l 2
 208.362304688 24 228.400390625 89.5185546875 228.400390625 191.640625 c 2
 228.400390625 373.005859375 l 2
 228.400390625 465.26953125 214.72265625 523 184.400390625 523 c 2
 133.400390625 523 l 2
 101.974609375 523 88.400390625 467.211914062 88.400390625 373.005859375 c 2
 88.400390625 191.640625 l 2
133.400390625 -52 m 2
 88.40625 -52 54.400390625 10.326171875 54.400390625 191.263671875 c 2
 54.400390625 373.46484375 l 2
 54.400390625 551.840820312 88.998046875 599 134.400390625 599 c 2
 184.400390625 599 l 2
 228.845703125 599 263.400390625 551.811523438 263.400390625 373.46484375 c 2
 263.400390625 191.263671875 l 2
 263.400390625 10.43359375 233.358398438 -52 184.400390625 -52 c 2
 133.400390625 -52 l 2
EndSplineSet
EndChar

StartChar: p
Encoding: 112 112 41
Width: 330
VWidth: -33
Flags: HW
LayerCount: 2
Fore
SplineSet
143.200195312 43 m 2
 96.015625 43 77.2001953125 124.219726562 77.2001953125 170.446289062 c 2
 77.2001953125 427.298828125 l 2
 77.2001953125 448.05859375 110.661132812 542 143.200195312 542 c 2
 169.200195312 542 l 2
 212.139648438 542 236.200195312 463.51953125 236.200195312 432.200195312 c 2
 236.200195312 170.446289062 l 2
 236.200195312 118.970703125 212.232421875 43 169.200195312 43 c 2
 143.200195312 43 l 2
76.2001953125 538 m 1
 76.2001953125 609 l 1
 61.2001953125 609 l 1
 61.2001953125 -266 l 1
 76.2001953125 -266 l 1
 76.2001953125 37 l 2
 76.2001953125 50.3154296875 118.3046875 -22 143.200195312 -22 c 2
 169.200195312 -22 l 2
 201.055664062 -22 251.200195312 65.2509765625 251.200195312 169.958007812 c 2
 251.200195312 432.79296875 l 2
 251.200195312 523.80078125 212.284179688 609 169.200195312 609 c 2
 143.200195312 609 l 2
 117.130859375 609 100.919921875 559.673828125 85.4189453125 535.315429688 c 2
 76.2001953125 520.830078125 l 1
 76.2001953125 538 l 1
EndSplineSet
EndChar

StartChar: q
Encoding: 113 113 42
Width: 329
VWidth: -33
Flags: HW
LayerCount: 2
Fore
SplineSet
171.400390625 53 m 2
 206.259765625 53 228.400390625 122.788085938 228.400390625 170.545898438 c 2
 228.400390625 427.188476562 l 2
 228.400390625 447.4921875 190.916992188 532 171.400390625 532 c 2
 146.400390625 532 l 2
 115.2890625 532 88.400390625 463.385742188 88.400390625 432.0859375 c 2
 88.400390625 170.545898438 l 2
 88.400390625 118.234375 115.384765625 53 146.400390625 53 c 2
 171.400390625 53 l 2
228.400390625 619 m 1
 233.400390625 619 l 1
 258.400390625 619 l 1
 263.400390625 619 l 1
 263.400390625 614 l 1
 263.400390625 -271 l 1
 263.400390625 -276 l 1
 258.400390625 -276 l 1
 233.400390625 -276 l 1
 228.400390625 -276 l 1
 228.400390625 -271 l 1
 228.400390625 18.041015625 l 1
 218.428710938 -1.3623046875 200.231445312 -32 171.400390625 -32 c 2
 146.400390625 -32 l 2
 102.255859375 -32 54.400390625 65.86328125 54.400390625 169.8984375 c 2
 54.400390625 432.859375 l 2
 54.400390625 523.024414062 91.484375 619 146.400390625 619 c 2
 171.400390625 619 l 2
 200.275390625 619 216.551757812 581.703125 228.400390625 557.840820312 c 1
 228.400390625 614 l 1
 228.400390625 619 l 1
EndSplineSet
EndChar

StartChar: r
Encoding: 114 114 43
Width: 287
VWidth: -51
Flags: HW
LayerCount: 2
Fore
SplineSet
61.2001953125 -52 m 1
 61.2001953125 -47 l 1
 61.2001953125 594 l 1
 61.2001953125 599 l 1
 66.2001953125 599 l 1
 91.2001953125 599 l 1
 96.2001953125 599 l 1
 96.2001953125 594 l 1
 96.2001953125 508.891601562 l 1
 111.611328125 563.918945312 121.522460938 599 143.200195312 599 c 2
 172.200195312 599 l 2
 191.346679688 599 236.200195312 591.161132812 236.200195312 461 c 2
 236.200195312 422 l 1
 236.200195312 417 l 1
 231.200195312 417 l 1
 206.200195312 417 l 1
 201.200195312 417 l 1
 201.200195312 422 l 1
 201.200195312 461 l 2
 201.200195312 519.087890625 185.31640625 532 173.200195312 532 c 2
 145.200195312 532 l 2
 127.373046875 532 96.2001953125 379.407226562 96.2001953125 318.684570312 c 2
 96.2001953125 -47 l 1
 96.2001953125 -52 l 1
 91.2001953125 -52 l 1
 66.2001953125 -52 l 1
 61.2001953125 -52 l 1
EndSplineSet
EndChar

StartChar: s
Encoding: 115 115 44
Width: 322
VWidth: -51
Flags: HW
LayerCount: 2
Fore
SplineSet
54.400390625 174 m 1
 59.400390625 174 l 1
 84.400390625 174 l 1
 89.400390625 174 l 1
 89.400390625 169 l 1
 89.400390625 115 l 2
 89.400390625 57.6171875 125.508789062 25 147.400390625 25 c 2
 172.350585938 25 l 2
 217.403320312 25.8857421875 229.400390625 72.0546875 229.400390625 113.458984375 c 0
 229.400390625 240.591796875 136.393554688 212.075195312 84.1787109375 291.673828125 c 0
 63.291015625 324.522460938 54.400390625 376.233398438 54.400390625 418.150390625 c 2
 54.400390625 453.534179688 l 2
 54.400390625 535.798828125 92.783203125 599 147.400390625 599 c 2
 172.400390625 599 l 2
 222.791992188 599 264.400390625 517.223632812 264.400390625 432 c 2
 264.400390625 370 l 1
 264.400390625 365 l 1
 259.400390625 365 l 1
 234.400390625 365 l 1
 229.400390625 365 l 1
 229.400390625 370 l 1
 229.400390625 432 l 2
 229.400390625 494.314453125 195.543945312 521.139648438 172.307617188 522 c 2
 147.400390625 522 l 2
 102.055664062 522 89.400390625 481.698242188 89.400390625 433.541015625 c 0
 89.400390625 306.359375 183.494140625 333.00390625 232.663085938 255.259765625 c 0
 252.322265625 223.734375 264.400390625 175.90625 264.400390625 132.78125 c 2
 264.400390625 90.517578125 l 2
 264.400390625 7.220703125 226.884765625 -52 172.400390625 -52 c 2
 147.400390625 -52 l 2
 98.099609375 -52 54.400390625 27.6513671875 54.400390625 115 c 2
 54.400390625 169 l 1
 54.400390625 174 l 1
EndSplineSet
EndChar

StartChar: t
Encoding: 116 116 45
Width: 255
VWidth: -70
Flags: HW
LayerCount: 2
Fore
SplineSet
86.099609375 833 m 1
 91.099609375 833 l 1
 116.099609375 833 l 1
 121.099609375 833 l 1
 121.099609375 828 l 1
 121.099609375 571.983398438 l 1
 204.099609375 571.983398438 l 1
 209.099609375 571.983398438 l 1
 209.099609375 567.041015625 l 1
 209.099609375 490.928710938 l 1
 209.099609375 485.986328125 l 1
 204.099609375 485.986328125 l 1
 121.099609375 485.986328125 l 1
 121.099609375 81.6982421875 l 2
 121.099609375 12.83203125 132.485351562 -30 144.099609375 -30 c 2
 204.099609375 -30 l 1
 209.099609375 -30 l 1
 209.099609375 -35 l 1
 209.099609375 -77 l 1
 209.099609375 -82 l 1
 204.099609375 -82 l 1
 144.099609375 -82 l 2
 103.09375 -82 86.099609375 9.896484375 86.099609375 80.2177734375 c 2
 86.099609375 485.760742188 l 1
 44.099609375 485.760742188 l 1
 39.099609375 485.760742188 l 1
 39.099609375 490.706054688 l 1
 39.099609375 566.869140625 l 1
 39.099609375 571.815429688 l 1
 44.099609375 571.815429688 l 1
 86.099609375 571.815429688 l 1
 86.099609375 828 l 1
 86.099609375 833 l 1
EndSplineSet
EndChar

StartChar: u
Encoding: 117 117 46
Width: 333
VWidth: -51
Flags: HW
LayerCount: 2
Fore
SplineSet
266.799804688 599 m 1
 266.799804688 594 l 1
 266.799804688 -37 l 1
 266.799804688 -42 l 1
 261.799804688 -42 l 1
 237.799804688 -42 l 1
 232.799804688 -42 l 1
 232.799804688 -37 l 1
 232.799804688 53.1728515625 l 1
 219.323242188 7.0986328125 197.876953125 -52 173.799804688 -52 c 2
 137.799804688 -52 l 2
 85.8505859375 -52 47.7998046875 55.4619140625 47.7998046875 231.609375 c 2
 47.7998046875 594 l 1
 47.7998046875 599 l 1
 52.7998046875 599 l 1
 93.7998046875 599 l 5
 98.7998046875 599 l 5
 98.7998046875 594 l 5
 98.7998046875 233.284179688 l 6
 98.7998046875 120.388671875 112.483398438 10 137.799804688 10 c 2
 173.799804688 10 l 2
 189.368164062 10 218.37109375 129.45703125 232.799804688 208.166992188 c 1
 232.799804688 594 l 1
 232.799804688 599 l 1
 237.799804688 599 l 1
 261.799804688 599 l 1
 266.799804688 599 l 1
EndSplineSet
EndChar

StartChar: v
Encoding: 118 118 47
Width: 308
VWidth: -51
Flags: HW
LayerCount: 2
Fore
SplineSet
47.599609375 599 m 1
 52.599609375 599 l 1
 77.599609375 599 l 1
 82.599609375 599 l 1
 82.599609375 594 l 1
 82.599609375 530.362304688 l 1
 143.922851562 110 l 1
 161.280273438 110 l 1
 222.599609375 527.365234375 l 1
 222.599609375 594 l 1
 222.599609375 599 l 1
 227.599609375 599 l 1
 252.599609375 599 l 1
 257.599609375 599 l 1
 257.599609375 594 l 1
 257.599609375 514.243164062 l 1
 257.599609375 513.881835938 l 1
 257.545898438 513.525390625 l 1
 173.545898438 -47.728515625 l 1
 172.916992188 -52 l 1
 168.599609375 -52 l 1
 135.599609375 -52 l 1
 131.275390625 -52 l 1
 130.651367188 -47.720703125 l 1
 47.6513671875 513.533203125 l 1
 47.599609375 513.88671875 l 1
 47.599609375 514.243164062 l 1
 47.599609375 594 l 1
 47.599609375 599 l 1
EndSplineSet
EndChar

StartChar: w
Encoding: 119 119 48
Width: 327
VWidth: -51
Flags: HW
LayerCount: 2
Fore
SplineSet
94.693359375 -52 m 1
 94.1396484375 -47.6279296875 l 1
 56.1396484375 247.767578125 l 1
 56.099609375 248.076171875 l 1
 56.099609375 248.38671875 l 1
 56.099609375 594 l 1
 56.099609375 599 l 1
 61.099609375 599 l 1
 86.099609375 599 l 1
 91.099609375 599 l 1
 91.099609375 594 l 1
 91.099609375 243.3125 l 1
 111.004882812 84.8681640625 l 1
 143.099609375 350.30078125 l 1
 143.099609375 432 l 1
 143.099609375 437 l 1
 148.099609375 437 l 1
 174.099609375 437 l 1
 179.099609375 437 l 1
 179.099609375 432 l 1
 179.099609375 350.30078125 l 1
 211.194335938 84.8681640625 l 1
 231.098632812 243.305664062 l 1
 230.099609375 593.985351562 l 1
 230.084960938 599 l 1
 235.099609375 599 l 1
 261.099609375 599 l 1
 266.099609375 599 l 1
 266.099609375 594 l 1
 266.099609375 248.38671875 l 1
 266.099609375 248.076171875 l 1
 266.059570312 247.767578125 l 1
 228.059570312 -47.6279296875 l 1
 227.505859375 -52 l 1
 223.099609375 -52 l 1
 198.099609375 -52 l 1
 193.678710938 -52 l 1
 193.137695312 -47.6123046875 l 1
 161.099609375 212.15234375 l 1
 129.061523438 -47.6123046875 l 1
 128.520507812 -52 l 1
 124.099609375 -52 l 1
 99.099609375 -52 l 1
 94.693359375 -52 l 1
EndSplineSet
EndChar

StartChar: x
Encoding: 120 120 49
Width: 305
VWidth: -51
Flags: HW
LayerCount: 2
Fore
SplineSet
223.290039062 -52 m 1
 223.290039062 -47 l 1
 223.290039062 11.2841796875 l 1
 154.245117188 247.342773438 l 1
 83.2900390625 9.2705078125 l 1
 83.2900390625 -47 l 1
 83.2900390625 -52 l 1
 78.2900390625 -52 l 1
 54.2900390625 -52 l 1
 49.2900390625 -52 l 1
 49.2900390625 -47 l 1
 49.2900390625 39.658203125 l 1
 49.2900390625 40.3681640625 l 1
 49.4931640625 41.048828125 l 1
 132.077148438 317.357421875 l 1
 49.4951171875 592.681640625 l 1
 47.599609375 599 l 1
 54.2900390625 599 l 1
 87.2900390625 599 l 1
 91.0185546875 599 l 1
 92.08203125 595.426757812 l 1
 154.25390625 386.640625 l 1
 215.4921875 595.407226562 l 1
 216.545898438 599 l 1
 220.290039062 599 l 1
 253.290039062 599 l 1
 259.98046875 599 l 1
 258.084960938 592.681640625 l 1
 175.502929688 317.357421875 l 1
 258.086914062 41.048828125 l 1
 258.290039062 40.3681640625 l 1
 258.290039062 39.658203125 l 1
 258.290039062 -47 l 1
 258.290039062 -52 l 1
 253.290039062 -52 l 1
 228.290039062 -52 l 1
 223.290039062 -52 l 1
EndSplineSet
EndChar

StartChar: y
Encoding: 121 121 50
Width: 289
VWidth: -33
Flags: HW
LayerCount: 2
Fore
SplineSet
102.936523438 -128.235351562 m 2
 125.827148438 29.8623046875 l 1
 39.9306640625 613.28125 l 1
 39.099609375 619 l 1
 44.87890625 619 l 1
 72.87890625 619 l 1
 77.208984375 619 l 1
 77.8271484375 614.713867188 l 1
 144.912109375 149.775390625 l 1
 212.930664062 614.723632812 l 1
 213.556640625 619 l 1
 217.87890625 619 l 1
 244.87890625 619 l 1
 250.662109375 619 l 1
 249.826171875 613.27734375 l 1
 139.829101562 -129.69921875 l 2
 128.159179688 -215.284179688 115.5546875 -276 85.87890625 -276 c 2
 44.87890625 -276 l 1
 39.87890625 -276 l 1
 39.87890625 -271 l 1
 39.87890625 -194 l 1
 39.87890625 -189 l 1
 44.87890625 -189 l 1
 86.87890625 -189 l 2
 94.6826171875 -189 94.33203125 -179.865234375 102.936523438 -128.235351562 c 2
EndSplineSet
EndChar

StartChar: z
Encoding: 122 122 51
Width: 317
VWidth: -51
Flags: HW
LayerCount: 2
Fore
SplineSet
261 -52 m 1
 256 -52 l 1
 56 -52 l 1
 51 -52 l 1
 51 -47 l 1
 51 41.4208984375 l 1
 51 42.2431640625 l 1
 51.2724609375 43.0205078125 l 1
 215.990234375 513 l 1
 56 513 l 1
 51 513 l 1
 51 518 l 1
 51 594 l 1
 51 599 l 1
 56 599 l 1
 256 599 l 1
 261 599 l 1
 261 594 l 1
 261 508.526367188 l 1
 261 507.708984375 l 1
 260.73046875 506.935546875 l 1
 95.99609375 34 l 1
 256 34 l 1
 261 34 l 1
 261 29 l 1
 261 -47 l 1
 261 -52 l 1
EndSplineSet
EndChar

StartChar: zero
Encoding: 48 48 52
Width: 324
VWidth: -78
Flags: HW
LayerCount: 2
Fore
SplineSet
160.200195312 8 m 0
 179.493164062 8 230.200195312 47.9208984375 230.200195312 229.248046875 c 2
 230.200195312 590.751953125 l 2
 230.200195312 772.068359375 179.497070312 812 160.200195312 812 c 0
 140.9375 812 90.2001953125 771.103515625 90.2001953125 590.751953125 c 2
 90.2001953125 229.274414062 l 2
 91.203125 45.9521484375 140.8671875 8 160.200195312 8 c 0
265.200195312 590.150390625 m 2
 265.200195312 228.859375 l 2
 265.200195312 49.076171875 216.834960938 -77 160.200195312 -77 c 0
 103.424804688 -77 61.2001953125 49.333984375 61.2001953125 228.859375 c 2
 61.2001953125 591.140625 l 2
 61.2001953125 769.668945312 103.411132812 897 160.200195312 897 c 0
 216.868164062 897 265.200195312 768.921875 265.200195312 590.150390625 c 2
EndSplineSet
EndChar

StartChar: one
Encoding: 49 49 53
Width: 194
VWidth: -78
Flags: HW
LayerCount: 2
Fore
SplineSet
131.099609375 897 m 1
 131.099609375 892 l 1
 131.099609375 -72 l 1
 131.099609375 -77 l 1
 126.099609375 -77 l 1
 104.099609375 -77 l 1
 99.099609375 -77 l 1
 99.099609375 -72 l 1
 99.099609375 715.916015625 l 1
 44.0166015625 716.82421875 l 1
 39.099609375 716.905273438 l 1
 39.099609375 721.772460938 l 1
 39.099609375 764.331054688 l 1
 39.099609375 767.256835938 l 1
 41.6904296875 768.666992188 l 2
 59.9521484375 778.608398438 77.7314453125 805.609375 82.3564453125 819.341796875 c 2
 82.40234375 819.48046875 l 1
 82.45703125 819.615234375 l 2
 85.8740234375 828.0703125 96.158203125 892.76171875 96.158203125 892.76171875 c 1
 96.8115234375 897 l 1
 101.099609375 897 l 1
 126.099609375 897 l 1
 131.099609375 897 l 1
EndSplineSet
EndChar

StartChar: two
Encoding: 50 50 54
Width: 311
VWidth: -78
Flags: HW
LayerCount: 2
Fore
SplineSet
72 -7 m 1
 72 -1.2548828125 l 1
 72.2177734375 -0.5419921875 l 1
 72.2177734375 -0.5419921875 72.5869140625 0.6748046875 73.29296875 3 c 2
 82 3 l 1
 82 -7 l 1
 77 -7 l 1
 72 -7 l 1
70.248046875 -12 m 1
 72 -6.2548828125 l 1
 72 -2 l 1
 73.29296875 -2 l 1
 87.6044921875 45.1923828125 240 549.046875 240 607 c 2
 240 710 l 2
 240 815.897460938 190.430664062 887 158 887 c 2
 133 887 l 2
 101.950195312 887 51 805.162109375 51 699 c 2
 51 619 l 1
 66 619 l 1
 66 699 l 2
 66 748.23828125 89.642578125 836 133 836 c 2
 158 836 l 2
 201.9140625 836 226 759.661132812 226 710 c 2
 226 629 l 2
 226 592.936523438 57.49609375 44.4619140625 51 23.2509765625 c 1
 51 -77 l 1
 240 -77 l 1
 240 -12 l 1
 82 -12 l 1
 77 -12 l 1
 72 -12 l 1
 70.248046875 -12 l 1
EndSplineSet
EndChar

StartChar: three
Encoding: 51 51 55
Width: 319
VWidth: -78
Flags: HW
LayerCount: 2
Fore
SplineSet
169.700195312 -11 m 2
 192.873046875 -11 219.686523438 15.6826171875 226.700195312 108.756835938 c 1
 226.700195312 268.663085938 l 2
 226.700195312 395.180664062 187.305664062 409.88671875 152.83203125 408.990234375 c 2
 147.700195312 408.856445312 l 1
 147.700195312 413.9296875 l 1
 147.700195312 487.056640625 l 1
 147.700195312 490.00390625 l 1
 150.32421875 491.404296875 l 2
 198.584960938 517.157226562 226.700195312 568.85546875 226.700195312 618.48828125 c 2
 226.700195312 711.318359375 l 2
 224.71875 789.625976562 183.701171875 827 169.600585938 827 c 2
 144.600585938 828 l 2
 130.975585938 828 86.7001953125 758.6015625 86.7001953125 710 c 2
 86.7001953125 649 l 1
 86.7001953125 644 l 1
 81.7001953125 644 l 1
 57.7001953125 644 l 1
 52.7001953125 644 l 1
 52.7001953125 649 l 1
 52.7001953125 710 l 2
 52.7001953125 816.134765625 102.125976562 897 144.700195312 897 c 2
 169.700195312 897 l 2
 207.16015625 897 261.700195312 823.10546875 261.700195312 711.900390625 c 2
 261.700195312 618.85546875 l 2
 261.700195312 526.0390625 225.170898438 475.474609375 214.3671875 462.478515625 c 1
 225.706054688 448.833984375 261.700195312 396.520507812 261.700195312 282.310546875 c 2
 261.700195312 108.099609375 l 2
 261.700195312 49.818359375 238.09765625 -77 169.700195312 -77 c 2
 144.700195312 -77 l 2
 84.9375 -77 52.7001953125 15.54296875 52.7001953125 110 c 2
 52.7001953125 170 l 1
 52.7001953125 175 l 1
 57.7001953125 175 l 1
 81.7001953125 175 l 1
 86.7001953125 175 l 1
 86.7001953125 170 l 1
 86.7001953125 110 l 2
 86.7001953125 67.4443359375 114.015625 -11 144.700195312 -11 c 2
 169.700195312 -11 l 2
EndSplineSet
EndChar

StartChar: four
Encoding: 52 52 56
Width: 302
VWidth: -78
Flags: HW
LayerCount: 2
Fore
SplineSet
234.299804688 897 m 1
 234.299804688 892 l 1
 234.299804688 246 l 1
 253.299804688 246 l 1
 258.299804688 246 l 1
 258.299804688 241 l 1
 258.299804688 176 l 1
 258.299804688 171 l 1
 253.299804688 171 l 1
 234.299804688 171 l 1
 234.299804688 -72 l 1
 234.299804688 -77 l 1
 229.299804688 -77 l 1
 204.299804688 -77 l 1
 199.299804688 -77 l 1
 199.299804688 -72 l 1
 199.299804688 171 l 1
 54.2998046875 171 l 1
 49.2998046875 171 l 1
 49.2998046875 175.965820312 l 1
 49.2998046875 263.360351562 l 1
 49.2998046875 263.921875 l 1
 49.42578125 264.46875 l 1
 194.42578125 893.116210938 l 1
 195.315429688 897 l 1
 199.299804688 897 l 1
 229.299804688 897 l 1
 234.299804688 897 l 1
199.299804688 246 m 1
 199.299804688 743.67578125 l 1
 85.5712890625 246 l 1
 199.299804688 246 l 1
EndSplineSet
EndChar

StartChar: five
Encoding: 53 53 57
Width: 322
VWidth: -82
Flags: HW
LayerCount: 2
Fore
SplineSet
236.200195312 183.111328125 m 2
 236.200195312 286.985351562 l 2
 236.200195312 395.6953125 201.068359375 470 165.200195312 470 c 2
 94.2001953125 470 l 1
 94.2001953125 415 l 1
 94.2001953125 410 l 1
 89.2001953125 410 l 1
 66.2001953125 410 l 1
 61.2001953125 410 l 1
 61.2001953125 415 l 1
 61.2001953125 889 l 1
 61.2001953125 894 l 1
 66.2001953125 894 l 1
 241.200195312 894 l 1
 246.200195312 894 l 1
 246.200195312 889 l 1
 246.200195312 830 l 1
 246.200195312 825 l 1
 241.200195312 825 l 1
 94.2001953125 825 l 1
 94.2001953125 539 l 1
 165.200195312 539 l 2
 218.412109375 539 271.200195312 425.30859375 271.200195312 287.116210938 c 2
 271.200195312 182.991210938 l 2
 271.200195312 76.0439453125 228.946289062 -56 176.200195312 -56 c 2
 150.200195312 -56 l 2
 100.546875 -56 61.2001953125 27.189453125 61.2001953125 124 c 2
 61.2001953125 185 l 1
 61.2001953125 190 l 1
 66.2001953125 190 l 1
 89.2001953125 190 l 1
 94.2001953125 190 l 1
 94.2001953125 185 l 1
 94.2001953125 124 l 2
 94.2001953125 71.689453125 121.084960938 9 150.200195312 9 c 2
 176.200195312 9 l 2
 201.39453125 9 236.200195312 92.83203125 236.200195312 183.111328125 c 2
EndSplineSet
EndChar

StartChar: six
Encoding: 54 54 58
Width: 335
VWidth: -77
Flags: HW
LayerCount: 2
Fore
SplineSet
92.900390625 169.30078125 m 2
 92.900390625 92.7529296875 126.809570312 -3 154.900390625 -3 c 2
 186.900390625 -3 l 2
 214.923828125 -3 246.900390625 92.615234375 246.900390625 169.30078125 c 2
 246.900390625 352.494140625 l 2
 246.900390625 425.26953125 201.1015625 504 188.900390625 504 c 2
 154.900390625 504 l 2
 139.836914062 504 91.9140625 462.352539062 92.900390625 384.212890625 c 2
 92.900390625 169.30078125 l 2
280.900390625 352.732421875 m 2
 280.900390625 169.131835938 l 2
 280.900390625 49.52734375 249.51171875 -76 186.900390625 -76 c 2
 154.900390625 -76 l 2
 94.2216796875 -76 62.900390625 49.2392578125 62.900390625 168.466796875 c 2
 62.900390625 652.451171875 l 2
 62.900390625 795.067382812 122.5 889 179.900390625 889 c 2
 263.900390625 889 l 1
 268.900390625 889 l 1
 268.900390625 884 l 1
 268.900390625 836 l 1
 268.900390625 831 l 1
 263.900390625 831 l 1
 179.900390625 831 l 2
 149.374023438 831 90.900390625 757.010742188 90.900390625 653.53515625 c 2
 90.900390625 514.134765625 l 1
 108.733398438 544.95703125 133.20703125 580 154.900390625 580 c 2
 188.900390625 580 l 2
 228.5703125 580 280.900390625 463.174804688 280.900390625 352.732421875 c 2
EndSplineSet
EndChar

StartChar: seven
Encoding: 55 55 59
Width: 292
VWidth: -78
Flags: HW
LayerCount: 2
Fore
SplineSet
40.7998046875 830 m 1
 40.7998046875 835 l 1
 40.7998046875 892 l 1
 40.7998046875 897 l 1
 45.7998046875 897 l 1
 246.799804688 897 l 1
 251.799804688 897 l 1
 251.799804688 892 l 1
 251.799804688 817.770507812 l 1
 251.799804688 817.391601562 l 1
 251.741210938 817.016601562 l 1
 125.799804688 7.7890625 l 1
 125.799804688 -72 l 1
 125.799804688 -77 l 1
 120.799804688 -77 l 1
 95.7998046875 -77 l 1
 90.7998046875 -77 l 1
 90.7998046875 -72 l 1
 90.7998046875 27.892578125 l 1
 90.7998046875 28.2626953125 l 1
 90.85546875 28.6298828125 l 1
 212.989257812 830 l 1
 45.7998046875 830 l 1
 40.7998046875 830 l 1
EndSplineSet
EndChar

StartChar: eight
Encoding: 56 56 60
Width: 326
VWidth: -78
Flags: HW
LayerCount: 2
Fore
SplineSet
116.728515625 461.071289062 m 1
 102.0625 477.005859375 59.5 540.301757812 59.5 651.520507812 c 2
 59.5 711.900390625 l 2
 59.5 781.399414062 90.2666015625 897 151.5 897 c 2
 179.5 897 l 2
 240.840820312 897 268.5 781.178710938 268.5 711.900390625 c 2
 268.5 651.520507812 l 2
 268.5 541.8125 215.463867188 475.307617188 200.017578125 459.610351562 c 1
 225.8828125 435.490234375 268.5 366.811523438 268.5 268.453125 c 2
 268.5 167.490234375 l 2
 268.5 40.16796875 233.090820312 -77 176.5 -77 c 2
 151.5 -77 l 2
 101.799804688 -77 59.5 42.978515625 59.5 167.490234375 c 2
 59.5 271.422851562 l 2
 59.5 371.649414062 98.28515625 437.674804688 116.728515625 461.071289062 c 1
151.5 426 m 2
 135.490234375 426 94.5 338.865234375 94.5 271.764648438 c 2
 94.5 167.952148438 l 2
 94.5 96.2431640625 132.912109375 -11 151.5 -11 c 2
 176.5 -11 l 2
 204.244140625 -11 234.5 96.0078125 234.5 167.952148438 c 2
 234.5 268.798828125 l 2
 234.5 307.384765625 191.024414062 426 176.5 426 c 2
 151.5 426 l 2
95.5 651.595703125 m 2
 95.5 588.965820312 140.5390625 503 151.5 503 c 2
 176.064453125 503 l 1
 187.987304688 509.62109375 234.5 604.345703125 234.5 651.595703125 c 2
 234.5 711.624023438 l 2
 234.5 752.904296875 209.942382812 812 176.5 812 c 2
 151.5 812 l 2
 122.905273438 812 95.5 760.596679688 95.5 711.624023438 c 2
 95.5 651.595703125 l 2
EndSplineSet
EndChar

StartChar: nine
Encoding: 57 57 61
Width: 326
VWidth: -78
Flags: HW
LayerCount: 2
Fore
SplineSet
230.099609375 652.66015625 m 2
 230.099609375 729.314453125 202.254882812 813 174.099609375 813 c 2
 136.099609375 813 l 2
 108.321289062 813 91.099609375 730.235351562 91.099609375 652.66015625 c 2
 91.099609375 470.544921875 l 2
 91.099609375 387.07421875 117.795898438 330 136.099609375 330 c 2
 174.099609375 330 l 2
 187.541015625 330 231.10546875 397.833984375 230.099609375 477.442382812 c 2
 230.099609375 652.66015625 l 2
56.099609375 470.267578125 m 2
 56.099609375 652.875976562 l 2
 56.099609375 771.71875 73.123046875 899 136.099609375 899 c 2
 174.099609375 899 l 2
 234.822265625 899 265.099609375 772.688476562 265.099609375 653.515625 c 2
 265.099609375 170.46484375 l 2
 265.099609375 10.0947265625 205.377929688 -77 148.157226562 -77 c 2
 61.21484375 -78.9990234375 l 1
 56.099609375 -79.1162109375 l 1
 56.099609375 -74 l 1
 56.099609375 3 l 1
 56.099609375 8 l 1
 61.099609375 8 l 1
 148.099609375 8 l 2
 190.330078125 8 231.099609375 57.25390625 231.099609375 169.5625 c 2
 231.099609375 307.540039062 l 1
 214.732421875 277.385742188 195.944335938 243 174.099609375 243 c 2
 136.099609375 243 l 2
 89.3115234375 243 56.099609375 350.677734375 56.099609375 470.267578125 c 2
EndSplineSet
EndChar

StartChar: exclam
Encoding: 33 33 62
Width: 154
VWidth: -78
Flags: HW
LayerCount: 2
Fore
SplineSet
57.7998046875 37 m 1
 98.7998046875 37 l 1
 103.799804688 37 l 1
 103.799804688 32 l 1
 103.799804688 -77 l 1
 103.799804688 -82 l 1
 98.7998046875 -82 l 1
 57.7998046875 -82 l 1
 52.7998046875 -82 l 1
 52.7998046875 -77 l 1
 52.7998046875 32 l 1
 52.7998046875 37 l 1
 57.7998046875 37 l 1
60.7998046875 161 m 1
 60.7998046875 897 l 1
 60.7998046875 902 l 1
 65.7998046875 902 l 1
 90.7998046875 902 l 1
 95.7998046875 902 l 1
 95.7998046875 897 l 1
 95.7998046875 161 l 1
 95.7998046875 156 l 1
 90.7998046875 156 l 1
 65.7998046875 156 l 1
 60.7998046875 156 l 1
 60.7998046875 161 l 1
EndSplineSet
EndChar

StartChar: dollar
Encoding: 36 36 63
Width: 323
VWidth: -78
Flags: HW
LayerCount: 2
Fore
SplineSet
170.799804688 719.181640625 m 1
 170.799804688 768 l 1
 180.799804688 768 l 1
 180.799804688 729 l 1024
232.799804688 600.028320312 m 2
 232.799804688 688.501953125 203.173828125 711.77734375 180.799804688 715.327148438 c 1
 180.799804688 433.98046875 l 1
 200.18359375 416.772460938 217.715820312 402.28515625 228.119140625 384.78125 c 0
 249.004882812 349.344726562 267.799804688 321.965820312 267.799804688 257.581054688 c 2
 267.799804688 194.23828125 l 2
 267.799804688 73.5166015625 232.092773438 26.1220703125 180.799804688 23.1513671875 c 1
 180.799804688 -72 l 1
 180.799804688 -77 l 1
 175.799804688 -77 l 1
 149.799804688 -77 l 1
 144.799804688 -77 l 1
 144.799804688 -72 l 1
 144.799804688 23.2841796875 l 1
 97.2373046875 28.5205078125 57.7998046875 102.729492188 57.7998046875 225.909179688 c 2
 57.7998046875 305.087890625 l 1
 57.7998046875 310.037109375 l 1
 62.7998046875 310.037109375 l 1
 87.7998046875 310.037109375 l 1
 92.7998046875 310.037109375 l 1
 92.7998046875 305.087890625 l 1
 92.7998046875 225.909179688 l 2
 92.7998046875 145.72265625 123.734375 114.592773438 144.799804688 109.8046875 c 1
 144.799804688 363.27734375 l 1
 122.216796875 383.799804688 103.450195312 403.5859375 89.328125 431.540039062 c 0
 66.0615234375 477.595703125 57.7998046875 512.525390625 57.7998046875 575.28515625 c 2
 57.7998046875 630.7109375 l 2
 57.7998046875 749.494140625 93.41796875 798.672851562 144.799804688 801.791015625 c 1
 144.799804688 892 l 1
 144.799804688 897 l 1
 149.799804688 897 l 1
 175.799804688 897 l 1
 180.799804688 897 l 1
 180.799804688 892 l 1
 180.799804688 801.677734375 l 1
 229.334960938 796.509765625 267.799804688 723.1875 267.799804688 600.028320312 c 2
 267.799804688 509.962890625 l 1
 267.799804688 505.014648438 l 1
 262.799804688 505.014648438 l 1
 237.799804688 505.014648438 l 1
 232.799804688 505.014648438 l 1
 232.799804688 509.962890625 l 1
 232.799804688 600.028320312 l 2
144.799804688 468.4453125 m 1
 144.799804688 718.807617188 l 1
 105.012695312 715.522460938 92.7998046875 672.826171875 92.7998046875 602 c 0
 92.7998046875 539.58984375 117.28515625 498.59765625 144.799804688 468.4453125 c 1
180.799804688 331.265625 m 1
 180.799804688 106.333007812 l 1
 221.344726562 111.091796875 233.770507812 162.813476562 232.80078125 223.909179688 c 0
 231.916992188 272.515625 209.026367188 303.38671875 180.799804688 331.265625 c 1
EndSplineSet
EndChar

StartChar: comma
Encoding: 44 44 64
Width: 163
VWidth: -19
Flags: HW
LayerCount: 2
Fore
SplineSet
107.508789062 224 m 1
 107.508789062 64 l 2
 107.508789062 10.0869352654 91.2670904014 -25 76.5087890625 -25 c 0
 75.6349009922 -25 56.0086972994 -28.5709760488 50.9732551566 -23.5355339059 c 2
 49.5556322477 -22.1179109971 l 1
 49.5100798848 -20.1136070268 l 2
 47.4476823559 70.631884244 73.6303172993 11.1036540482 75.5121316014 89.1989475872 c 0
 76.3665299536 104.578117927 60.5374130613 125.962209247 60.5374130613 125.962209247 c 1
 59.5087890625 127.306953832 l 1
 59.5087890625 129 l 1
 59.5087890625 224 l 1
 59.5087890625 229 l 1
 64.5087890625 229 l 1
 102.508789062 229 l 1
 107.508789062 229 l 1
 107.508789062 224 l 1
EndSplineSet
EndChar

StartChar: period
Encoding: 46 46 65
Width: 175
VWidth: -15
Flags: HW
LayerCount: 2
Fore
SplineSet
120.5 144 m 1
 120.5 2 l 1
 120.5 -3 l 1
 115.5 -3 l 1
 59.5 -3 l 1
 54.5 -3 l 1
 54.5 2 l 1
 54.5 144 l 1
 54.5 149 l 1
 59.5 149 l 1
 115.5 149 l 1
 120.5 149 l 1
 120.5 144 l 1
EndSplineSet
EndChar

StartChar: hyphen
Encoding: 45 45 66
Width: 314
VWidth: -82
Flags: HW
LayerCount: 2
Fore
SplineSet
57.7746793766 470.999936871 m 1
 256.774679377 471.999936871 l 1
 261.799804688 472.025188757 l 1
 261.799804688 467 l 1
 261.799804688 403 l 1
 261.799804688 398.025062499 l 1
 256.824929999 398.000063129 l 1
 57.8249299984 397.000063129 l 1
 52.7998046875 396.974811243 l 1
 52.7998046875 402 l 1
 52.7998046875 466 l 1
 52.7998046875 470.974937501 l 1
 57.7746793766 470.999936871 l 1
EndSplineSet
EndChar

StartChar: parenleft
Encoding: 40 40 67
Width: 204
VWidth: -80
Flags: HW
LayerCount: 2
Fore
SplineSet
170.700195312 -128 m 1
 165.700195312 -128 l 1
 160.700195312 -128 l 1
 160.700195312 -127.303976424 l 1
 104.288081313 -111.69269724 47.7001953125 163.533184446 47.7001953125 395 c 0
 47.7001953125 588.094765946 106.685640033 930.648731671 160.700195312 951.045890263 c 1
 160.700195312 952 l 1
 165.700195312 952 l 1
 170.700195312 952 l 1
 173.681141015 952 l 1
 170.700195312 945.851799487 l 1
 170.700195312 942 l 1
 168.872177579 942 l 1
 137.34551953 873.147592902 82.7001953125 621.970226939 82.7001953125 398 c 0
 82.7001953125 122.602841943 129.495486654 -27.2769755984 168.970736662 -118 c 1
 170.700195312 -118 l 1
 170.700195312 -121.949597592 l 1
 173.359712854 -128 l 1
 170.700195312 -128 l 1
EndSplineSet
EndChar

StartChar: parenright
Encoding: 41 41 68
Width: 201
VWidth: -77
Flags: HW
LayerCount: 2
Fore
SplineSet
34.099609375 930 m 1
 44.099609375 930 l 1
 44.099609375 920 l 1
 34.099609375 920 l 1
 34.099609375 930 l 1
48.601036843 -107.589734324 m 1
 92.9580310306 -69.6127053421 147.099609375 180.434714081 147.099609375 401 c 0
 147.099609375 582.051355277 92.5600114511 859.764591239 50.2010391401 912.147158259 c 1
 83.3142253363 829.948327991 132.099609375 618.01020828 132.099609375 404 c 0
 132.099609375 135.547388051 87.3901987307 -15.7554613555 48.601036843 -107.589734324 c 1
34.099609375 -112 m 1
 44.099609375 -112 l 1
 44.099609375 -122 l 1
 34.099609375 -122 l 1
 34.099609375 -112 l 1
EndSplineSet
EndChar

StartChar: asterisk
Encoding: 42 42 69
Width: 254
VWidth: -77
Flags: HW
LayerCount: 2
Fore
SplineSet
145.450321876 390.212678125 m 1
 213.866250215 181.988534218 l 1
 198.58444986 136.143133155 l 1
 141.833051701 307.488700675 l 1
 141.833051701 307.488700675 141.599609375 302.680527048 141.599609375 301 c 2
 141.599609375 27.270067673 l 1
 113.599609375 25.7145121174 l 1
 113.599609375 308.302210559 l 1
 112.360360799 304.47180587 l 1
 57.6301311902 132.618884898 l 1
 42.3437690878 180.006607416 l 1
 110.791101622 390.381497117 l 1
 112.462622402 397.067580236 l 1
 110.718674074 404.915347711 l 1
 43.331744169 609.007792683 l 1
 58.6156941888 654.859642742 l 1
 112.343025865 492.58113883 l 1
 113.599609375 488.811388301 l 1
 113.599609375 780 l 1
 141.599609375 780 l 1
 141.599609375 491.763054614 l 1
 141.862381037 492.599583595 l 1
 198.708068632 660.950273779 l 1
 213.856648959 613.989674766 l 1
 145.427733951 404.677699447 l 1
 143.736596348 397.067580236 l 1
 145.450321876 390.212678125 l 1
EndSplineSet
EndChar

StartChar: numbersign
Encoding: 35 35 70
Width: 288
VWidth: -76
Flags: HW
LayerCount: 2
Fore
SplineSet
74 -9 m 1
 90 -9 l 1
 90 223 l 1
 90 228 l 1
 95 228 l 1
 145 228 l 1
 150 228 l 1
 150 223 l 1
 150 -9 l 1
 165 -9 l 1
 165 223 l 1
 165 228 l 1
 170 228 l 1
 234 228 l 1
 234 295 l 1
 198 295 l 1
 193 295 l 1
 193 300 l 1
 193 487 l 1
 193 492 l 1
 198 492 l 1
 234 492 l 1
 234 558 l 1
 219 558 l 1
 214 558 l 1
 214 563 l 1
 214 814 l 1
 199 814 l 1
 199 563 l 1
 199 558 l 1
 194 558 l 1
 144 558 l 1
 139 558 l 1
 139 563 l 1
 139 814 l 1
 124 814 l 1
 124 563 l 1
 124 558 l 1
 119 558 l 1
 56 558 l 1
 56 492 l 1
 97 492 l 1
 102 492 l 1
 102 487 l 1
 102 300 l 1
 102 295.212667638 l 1
 97.2171861214 295.004719208 l 1
 56 293.212667638 l 1
 56 228 l 1
 69 228 l 1
 74 228 l 1
 74 223 l 1
 74 -9 l 1
173 295 m 1
 122 295 l 1
 117 295 l 1
 117 300 l 1
 117 487 l 1
 117 492 l 1
 122 492 l 1
 173 492 l 1
 178 492 l 1
 178 487 l 1
 178 300 l 1
 178 295 l 1
 173 295 l 1
EndSplineSet
EndChar

StartChar: colon
Encoding: 58 58 71
Width: 180
VWidth: -68
Flags: HW
LayerCount: 2
Fore
SplineSet
123.900390625 654 m 1
 123.900390625 520 l 1
 123.900390625 515 l 1
 118.900390625 515 l 1
 62.900390625 515 l 1
 57.900390625 515 l 1
 57.900390625 520 l 1
 57.900390625 654 l 1
 57.900390625 659 l 1
 62.900390625 659 l 1
 118.900390625 659 l 1
 123.900390625 659 l 1
 123.900390625 654 l 1
121.900390625 122 m 1
 121.900390625 2 l 1
 121.900390625 -3 l 1
 116.900390625 -3 l 1
 62.900390625 -3 l 1
 57.900390625 -3 l 1
 57.900390625 2 l 1
 57.900390625 122 l 1
 57.900390625 127 l 1
 62.900390625 127 l 1
 116.900390625 127 l 1
 121.900390625 127 l 1
 121.900390625 122 l 1
EndSplineSet
EndChar

StartChar: slash
Encoding: 47 47 72
Width: 249
VWidth: -82
Flags: HW
LayerCount: 2
Fore
SplineSet
59.621277289 -123.745889433 m 1
 36.621277289 -88.7458894333 l 1
 35.5821486683 -87.1646067496 l 1
 35.8502501803 -85.2915438047 l 1
 182.850250181 941.708456195 l 1
 184.796099366 955.30292635 l 1
 192.046231314 943.639670606 l 1
 215.046231314 906.639670606 l 1
 216.007707187 905.09294855 l 1
 215.749165126 903.290189284 l 1
 68.7491651257 -121.709810716 l 1
 66.874270799 -134.78305347 l 1
 59.621277289 -123.745889433 l 1
EndSplineSet
EndChar
